%TF.GenerationSoftware,KiCad,Pcbnew,7.0.10*%
%TF.CreationDate,2024-04-18T15:46:53+08:00*%
%TF.ProjectId,esp32c3-vertical,65737033-3263-4332-9d76-657274696361,rev?*%
%TF.SameCoordinates,Original*%
%TF.FileFunction,Copper,L2,Inr*%
%TF.FilePolarity,Positive*%
%FSLAX46Y46*%
G04 Gerber Fmt 4.6, Leading zero omitted, Abs format (unit mm)*
G04 Created by KiCad (PCBNEW 7.0.10) date 2024-04-18 15:46:53*
%MOMM*%
%LPD*%
G01*
G04 APERTURE LIST*
%TA.AperFunction,ViaPad*%
%ADD10C,0.450000*%
%TD*%
%TA.AperFunction,ViaPad*%
%ADD11C,0.800000*%
%TD*%
%TA.AperFunction,Conductor*%
%ADD12C,0.250000*%
%TD*%
G04 APERTURE END LIST*
D10*
%TO.N,GND*%
X13650000Y12100000D03*
%TO.N,+3.3V*%
X15100000Y11100000D03*
%TO.N,GND*%
X12300000Y8000000D03*
X9500000Y12100000D03*
%TO.N,U0RX*%
X11450000Y16025000D03*
%TO.N,U0TX*%
X10650000Y16025000D03*
%TO.N,OP*%
X10600000Y14400000D03*
%TO.N,CH2*%
X3785714Y1300000D03*
%TO.N,CH1*%
X1800000Y1300000D03*
%TO.N,CH2*%
X7583353Y5605549D03*
%TO.N,CH1*%
X8200000Y5400000D03*
%TO.N,GND*%
X15400000Y4200000D03*
%TO.N,OUT1*%
X15200000Y5300000D03*
X11728570Y2600000D03*
%TO.N,OUT2*%
X9900000Y2600000D03*
X15400000Y6125000D03*
%TO.N,+3.3V*%
X8200000Y8000000D03*
X9100000Y5200000D03*
%TO.N,GND*%
X6500000Y4200000D03*
X16400000Y16100000D03*
%TO.N,Net-(U2-GPIO8)*%
X15100000Y12725000D03*
%TO.N,Net-(U2-GPIO2{slash}ADC1_CH2)*%
X10550000Y5250000D03*
%TO.N,EN*%
X12900000Y5200000D03*
D11*
%TO.N,GND*%
X13750000Y1300000D03*
D10*
%TO.N,+5V*%
X15950000Y2800000D03*
%TD*%
D12*
%TO.N,CH1*%
X6500000Y2600000D02*
X2600000Y2600000D01*
X2600000Y2600000D02*
X1800000Y1800000D01*
X8200000Y4300000D02*
X6500000Y2600000D01*
X8200000Y5400000D02*
X8200000Y4300000D01*
X1800000Y1800000D02*
X1800000Y1300000D01*
%TO.N,OUT2*%
X15125000Y6125000D02*
X15400000Y6125000D01*
X12300000Y3300000D02*
X15125000Y6125000D01*
X9900000Y2600000D02*
X10600000Y3300000D01*
X10600000Y3300000D02*
X12300000Y3300000D01*
%TO.N,OUT1*%
X12500000Y2600000D02*
X15200000Y5300000D01*
X11728570Y2600000D02*
X12500000Y2600000D01*
%TD*%
%TA.AperFunction,Conductor*%
%TO.N,GND*%
G36*
X17442539Y16979815D02*
G01*
X17488294Y16927011D01*
X17499500Y16875500D01*
X17499500Y2124500D01*
X17479815Y2057461D01*
X17427011Y2011706D01*
X17375500Y2000500D01*
X16524760Y2000500D01*
X16524554Y2000541D01*
X16499998Y2000541D01*
X16499807Y2000462D01*
X16499619Y2000385D01*
X16499615Y2000382D01*
X16499459Y2000001D01*
X16499476Y1975384D01*
X16499471Y1975384D01*
X16499500Y1975241D01*
X16499500Y124500D01*
X16479815Y57461D01*
X16427011Y11706D01*
X16375500Y500D01*
X1124500Y500D01*
X1057461Y20185D01*
X1011706Y72989D01*
X1000500Y124500D01*
X1000500Y1975241D01*
X1000528Y1975384D01*
X1000524Y1975384D01*
X1000539Y1999998D01*
X1000541Y2000000D01*
X1000462Y2000192D01*
X1000384Y2000382D01*
X1000380Y2000386D01*
X1000194Y2000462D01*
X1000002Y2000541D01*
X975446Y2000541D01*
X975240Y2000500D01*
X124500Y2000500D01*
X57461Y2020185D01*
X11706Y2072989D01*
X500Y2124500D01*
X500Y2876000D01*
X20185Y2943039D01*
X72989Y2988794D01*
X124500Y3000000D01*
X2098890Y3000000D01*
X2165929Y2980315D01*
X2211684Y2927511D01*
X2221628Y2858353D01*
X2192603Y2794797D01*
X2186571Y2788319D01*
X1546780Y2148528D01*
X1522752Y2124500D01*
X1451471Y2053220D01*
X1440510Y2031707D01*
X1430346Y2015122D01*
X1416152Y1995586D01*
X1416151Y1995583D01*
X1408688Y1972615D01*
X1401243Y1954642D01*
X1390280Y1933127D01*
X1386503Y1909278D01*
X1381962Y1890361D01*
X1374500Y1867396D01*
X1374500Y1820244D01*
X1371404Y1792709D01*
X1295710Y1460339D01*
X1289368Y1440425D01*
X1288028Y1437191D01*
X1288026Y1437183D01*
X1269965Y1300001D01*
X1269965Y1300000D01*
X1288026Y1162819D01*
X1288027Y1162814D01*
X1340974Y1034985D01*
X1340975Y1034983D01*
X1340976Y1034982D01*
X1425209Y925209D01*
X1534982Y840976D01*
X1662817Y788026D01*
X1785702Y771848D01*
X1799999Y769965D01*
X1800000Y769965D01*
X1800001Y769965D01*
X1812947Y771670D01*
X1937183Y788026D01*
X2065018Y840976D01*
X2174791Y925209D01*
X2259024Y1034982D01*
X2311974Y1162817D01*
X2330035Y1300000D01*
X3255679Y1300000D01*
X3273740Y1162819D01*
X3273741Y1162814D01*
X3326688Y1034985D01*
X3326689Y1034983D01*
X3326690Y1034982D01*
X3410923Y925209D01*
X3520696Y840976D01*
X3648531Y788026D01*
X3771416Y771848D01*
X3785713Y769965D01*
X3785714Y769965D01*
X3785715Y769965D01*
X3798661Y771670D01*
X3922897Y788026D01*
X4050732Y840976D01*
X4160505Y925209D01*
X4244738Y1034982D01*
X4297688Y1162817D01*
X4315749Y1300000D01*
X4297688Y1437183D01*
X4244738Y1565017D01*
X4160505Y1674791D01*
X4160503Y1674792D01*
X4160503Y1674793D01*
X4050729Y1759026D01*
X3922900Y1811973D01*
X3922898Y1811974D01*
X3922897Y1811974D01*
X3831441Y1824015D01*
X3785715Y1830035D01*
X3785713Y1830035D01*
X3717122Y1821005D01*
X3648531Y1811974D01*
X3648530Y1811974D01*
X3648527Y1811973D01*
X3520699Y1759026D01*
X3410923Y1674791D01*
X3326688Y1565015D01*
X3273741Y1437187D01*
X3273740Y1437182D01*
X3255679Y1300001D01*
X3255679Y1300000D01*
X2330035Y1300000D01*
X2311974Y1437183D01*
X2310631Y1440425D01*
X2304286Y1460348D01*
X2303562Y1463528D01*
X2303562Y1463530D01*
X2274570Y1590833D01*
X2278877Y1660568D01*
X2307791Y1706044D01*
X2739929Y2138181D01*
X2801252Y2171666D01*
X2827610Y2174500D01*
X6567392Y2174500D01*
X6567393Y2174500D01*
X6590360Y2181964D01*
X6609276Y2186505D01*
X6633126Y2190281D01*
X6654636Y2201243D01*
X6672614Y2208690D01*
X6695581Y2216151D01*
X6715118Y2230347D01*
X6731706Y2240512D01*
X6753220Y2251472D01*
X6848528Y2346780D01*
X6848528Y2346781D01*
X7101747Y2600000D01*
X9369965Y2600000D01*
X9388026Y2462819D01*
X9388027Y2462814D01*
X9440974Y2334985D01*
X9440975Y2334983D01*
X9440976Y2334982D01*
X9525209Y2225209D01*
X9634982Y2140976D01*
X9762817Y2088026D01*
X9885702Y2071848D01*
X9899999Y2069965D01*
X9900000Y2069965D01*
X9900001Y2069965D01*
X9912947Y2071670D01*
X10037183Y2088026D01*
X10165018Y2140976D01*
X10274791Y2225209D01*
X10359024Y2334982D01*
X10360371Y2338236D01*
X10369971Y2356809D01*
X10371697Y2359555D01*
X10371704Y2359561D01*
X10551460Y2645337D01*
X10568738Y2666991D01*
X10739929Y2838181D01*
X10801252Y2871666D01*
X10827610Y2874500D01*
X11093279Y2874500D01*
X11160318Y2854815D01*
X11206073Y2802011D01*
X11216218Y2734314D01*
X11198535Y2600001D01*
X11198535Y2600000D01*
X11216596Y2462819D01*
X11216597Y2462814D01*
X11269544Y2334985D01*
X11269545Y2334983D01*
X11269546Y2334982D01*
X11353779Y2225209D01*
X11463552Y2140976D01*
X11591387Y2088026D01*
X11714272Y2071848D01*
X11728569Y2069965D01*
X11728570Y2069965D01*
X11728571Y2069965D01*
X11762865Y2074481D01*
X11865753Y2088026D01*
X11868992Y2089369D01*
X11888916Y2095714D01*
X11892094Y2096438D01*
X11892099Y2096438D01*
X12221274Y2171404D01*
X12248808Y2174500D01*
X12567392Y2174500D01*
X12567393Y2174500D01*
X12590360Y2181964D01*
X12609276Y2186505D01*
X12633126Y2190281D01*
X12654636Y2201243D01*
X12672614Y2208690D01*
X12695581Y2216151D01*
X12715118Y2230347D01*
X12731706Y2240512D01*
X12753220Y2251472D01*
X12848528Y2346780D01*
X13301748Y2800000D01*
X15419965Y2800000D01*
X15437476Y2666991D01*
X15438026Y2662819D01*
X15438027Y2662814D01*
X15490974Y2534985D01*
X15490975Y2534983D01*
X15490976Y2534982D01*
X15575209Y2425209D01*
X15684982Y2340976D01*
X15812817Y2288026D01*
X15935702Y2271848D01*
X15949999Y2269965D01*
X15950000Y2269965D01*
X15950001Y2269965D01*
X15962947Y2271670D01*
X16087183Y2288026D01*
X16215018Y2340976D01*
X16324791Y2425209D01*
X16409024Y2534982D01*
X16461974Y2662817D01*
X16480035Y2800000D01*
X16461974Y2937183D01*
X16417239Y3045185D01*
X16409025Y3065015D01*
X16409024Y3065016D01*
X16409024Y3065017D01*
X16324791Y3174791D01*
X16324789Y3174792D01*
X16324789Y3174793D01*
X16215015Y3259026D01*
X16087186Y3311973D01*
X16087184Y3311974D01*
X16087183Y3311974D01*
X15995727Y3324015D01*
X15950001Y3330035D01*
X15949999Y3330035D01*
X15881408Y3321005D01*
X15812817Y3311974D01*
X15812816Y3311974D01*
X15812813Y3311973D01*
X15684985Y3259026D01*
X15575209Y3174791D01*
X15490974Y3065015D01*
X15438027Y2937187D01*
X15438026Y2937184D01*
X15438026Y2937183D01*
X15419965Y2800000D01*
X13301748Y2800000D01*
X15133012Y4631266D01*
X15154663Y4648540D01*
X15381550Y4791255D01*
X15443196Y4830030D01*
X15461767Y4839630D01*
X15465018Y4840976D01*
X15574791Y4925209D01*
X15659024Y5034982D01*
X15711974Y5162817D01*
X15730035Y5300000D01*
X15711974Y5437183D01*
X15665147Y5550233D01*
X15657679Y5619701D01*
X15688954Y5682180D01*
X15704219Y5696057D01*
X15774791Y5750209D01*
X15859024Y5859982D01*
X15911974Y5987817D01*
X15930035Y6125000D01*
X15911974Y6262183D01*
X15859024Y6390017D01*
X15774791Y6499791D01*
X15774789Y6499792D01*
X15774789Y6499793D01*
X15679717Y6572745D01*
X15665018Y6584024D01*
X15665017Y6584025D01*
X15665015Y6584026D01*
X15537186Y6636973D01*
X15537184Y6636974D01*
X15537183Y6636974D01*
X15445727Y6649015D01*
X15400001Y6655035D01*
X15399999Y6655035D01*
X15331408Y6646005D01*
X15262817Y6636974D01*
X15262816Y6636974D01*
X15262813Y6636973D01*
X15134987Y6584026D01*
X15134978Y6584021D01*
X15125665Y6576875D01*
X15114545Y6569266D01*
X15113300Y6568510D01*
X15066698Y6555470D01*
X15067244Y6552026D01*
X15057604Y6550500D01*
X15034639Y6543038D01*
X15015722Y6538497D01*
X14991873Y6534720D01*
X14970358Y6523757D01*
X14952386Y6516312D01*
X14929418Y6508849D01*
X14929416Y6508848D01*
X14909884Y6494657D01*
X14893299Y6484494D01*
X14871782Y6473531D01*
X14847804Y6449552D01*
X14847803Y6449553D01*
X14730756Y6332507D01*
X14726420Y6328375D01*
X14702458Y6306625D01*
X14697303Y6300573D01*
X14697082Y6300761D01*
X14688795Y6290545D01*
X13627403Y5229153D01*
X13566080Y5195668D01*
X13496388Y5200652D01*
X13440455Y5242524D01*
X13416783Y5300649D01*
X13411974Y5337183D01*
X13359024Y5465017D01*
X13274791Y5574791D01*
X13274789Y5574792D01*
X13274789Y5574793D01*
X13165015Y5659026D01*
X13037186Y5711973D01*
X13037184Y5711974D01*
X13037183Y5711974D01*
X12945727Y5724015D01*
X12900001Y5730035D01*
X12899999Y5730035D01*
X12831408Y5721005D01*
X12762817Y5711974D01*
X12762816Y5711974D01*
X12762813Y5711973D01*
X12634985Y5659026D01*
X12525209Y5574791D01*
X12440974Y5465015D01*
X12388027Y5337187D01*
X12388026Y5337184D01*
X12388026Y5337183D01*
X12369965Y5200000D01*
X12386354Y5075514D01*
X12388026Y5062819D01*
X12388027Y5062814D01*
X12440974Y4934985D01*
X12440975Y4934983D01*
X12440976Y4934982D01*
X12525209Y4825209D01*
X12634982Y4740976D01*
X12634983Y4740976D01*
X12634984Y4740975D01*
X12642104Y4738026D01*
X12762817Y4688026D01*
X12799351Y4683217D01*
X12863246Y4654952D01*
X12901718Y4596628D01*
X12902551Y4526763D01*
X12870847Y4472597D01*
X12160071Y3761819D01*
X12098748Y3728334D01*
X12072390Y3725500D01*
X10532604Y3725500D01*
X10509639Y3718038D01*
X10490722Y3713497D01*
X10466873Y3709720D01*
X10445358Y3698757D01*
X10427386Y3691312D01*
X10404418Y3683849D01*
X10404416Y3683848D01*
X10384884Y3669657D01*
X10368299Y3659494D01*
X10346782Y3648531D01*
X10346780Y3648529D01*
X10322805Y3624553D01*
X9966999Y3268749D01*
X9945341Y3251468D01*
X9656792Y3069965D01*
X9638227Y3060368D01*
X9634985Y3059026D01*
X9525209Y2974791D01*
X9440974Y2865015D01*
X9388027Y2737187D01*
X9388026Y2737182D01*
X9369965Y2600001D01*
X9369965Y2600000D01*
X7101747Y2600000D01*
X8435778Y3934033D01*
X8435781Y3934034D01*
X8453219Y3951472D01*
X8453220Y3951472D01*
X8548528Y4046780D01*
X8559493Y4068302D01*
X8569658Y4084888D01*
X8583849Y4104419D01*
X8591310Y4127386D01*
X8598759Y4145366D01*
X8609718Y4166872D01*
X8609718Y4166873D01*
X8609719Y4166874D01*
X8613495Y4190724D01*
X8618036Y4209640D01*
X8625500Y4232607D01*
X8625500Y4367393D01*
X8625500Y4650271D01*
X8645185Y4717310D01*
X8697989Y4763065D01*
X8767147Y4773009D01*
X8824987Y4748645D01*
X8834982Y4740976D01*
X8962817Y4688026D01*
X9085702Y4671848D01*
X9099999Y4669965D01*
X9100000Y4669965D01*
X9100001Y4669965D01*
X9112947Y4671670D01*
X9237183Y4688026D01*
X9365018Y4740976D01*
X9474791Y4825209D01*
X9559024Y4934982D01*
X9611974Y5062817D01*
X9630035Y5200000D01*
X9623452Y5250000D01*
X10019965Y5250000D01*
X10038026Y5112819D01*
X10038027Y5112814D01*
X10090974Y4984985D01*
X10090975Y4984983D01*
X10090976Y4984982D01*
X10175209Y4875209D01*
X10284982Y4790976D01*
X10412817Y4738026D01*
X10528915Y4722741D01*
X10549999Y4719965D01*
X10550000Y4719965D01*
X10550001Y4719965D01*
X10571085Y4722741D01*
X10687183Y4738026D01*
X10815018Y4790976D01*
X10924791Y4875209D01*
X11009024Y4984982D01*
X11061974Y5112817D01*
X11080035Y5250000D01*
X11061974Y5387183D01*
X11009024Y5515017D01*
X10924791Y5624791D01*
X10924789Y5624792D01*
X10924789Y5624793D01*
X10815015Y5709026D01*
X10687186Y5761973D01*
X10687184Y5761974D01*
X10687183Y5761974D01*
X10589831Y5774791D01*
X10550001Y5780035D01*
X10549999Y5780035D01*
X10510169Y5774791D01*
X10412817Y5761974D01*
X10412816Y5761974D01*
X10412813Y5761973D01*
X10284985Y5709026D01*
X10175209Y5624791D01*
X10090974Y5515015D01*
X10038027Y5387187D01*
X10038026Y5387182D01*
X10019965Y5250001D01*
X10019965Y5250000D01*
X9623452Y5250000D01*
X9611974Y5337183D01*
X9559024Y5465017D01*
X9474791Y5574791D01*
X9474789Y5574792D01*
X9474789Y5574793D01*
X9365015Y5659026D01*
X9237186Y5711973D01*
X9237184Y5711974D01*
X9237183Y5711974D01*
X9145727Y5724015D01*
X9100001Y5730035D01*
X9099999Y5730035D01*
X9031408Y5721005D01*
X8962817Y5711974D01*
X8962816Y5711974D01*
X8962813Y5711973D01*
X8834984Y5659026D01*
X8834984Y5659025D01*
X8825499Y5651747D01*
X8760328Y5626556D01*
X8691884Y5640597D01*
X8651641Y5674639D01*
X8574791Y5774791D01*
X8465015Y5859026D01*
X8337186Y5911973D01*
X8337184Y5911974D01*
X8337183Y5911974D01*
X8231848Y5925842D01*
X8200001Y5930035D01*
X8199998Y5930035D01*
X8086372Y5915076D01*
X8017337Y5925842D01*
X7971812Y5962528D01*
X7958144Y5980340D01*
X7848368Y6064575D01*
X7720539Y6117522D01*
X7720537Y6117523D01*
X7720536Y6117523D01*
X7629080Y6129564D01*
X7583354Y6135584D01*
X7583352Y6135584D01*
X7514761Y6126554D01*
X7446170Y6117523D01*
X7446169Y6117523D01*
X7446166Y6117522D01*
X7318338Y6064575D01*
X7208562Y5980340D01*
X7124327Y5870564D01*
X7071380Y5742736D01*
X7071379Y5742731D01*
X7055852Y5624793D01*
X7053318Y5605549D01*
X7065237Y5515015D01*
X7071379Y5468368D01*
X7071380Y5468363D01*
X7124327Y5340534D01*
X7124328Y5340532D01*
X7124329Y5340531D01*
X7208562Y5230758D01*
X7318335Y5146525D01*
X7446170Y5093575D01*
X7583353Y5075514D01*
X7616730Y5079909D01*
X7685762Y5069145D01*
X7738019Y5022766D01*
X7753819Y4984506D01*
X7771404Y4907294D01*
X7774500Y4879758D01*
X7774500Y4527610D01*
X7754815Y4460571D01*
X7738181Y4439929D01*
X6360071Y3061819D01*
X6298748Y3028334D01*
X6272390Y3025500D01*
X6024000Y3025500D01*
X5956961Y3045185D01*
X5911206Y3097989D01*
X5900000Y3149500D01*
X5900000Y8000000D01*
X7669965Y8000000D01*
X7688026Y7862819D01*
X7688027Y7862814D01*
X7740974Y7734985D01*
X7740975Y7734983D01*
X7740976Y7734982D01*
X7825209Y7625209D01*
X7934982Y7540976D01*
X8062817Y7488026D01*
X8185702Y7471848D01*
X8199999Y7469965D01*
X8200000Y7469965D01*
X8200001Y7469965D01*
X8212947Y7471670D01*
X8337183Y7488026D01*
X8465018Y7540976D01*
X8574791Y7625209D01*
X8659024Y7734982D01*
X8711974Y7862817D01*
X8730035Y8000000D01*
X8711974Y8137183D01*
X8659024Y8265017D01*
X8574791Y8374791D01*
X8574789Y8374792D01*
X8574789Y8374793D01*
X8465015Y8459026D01*
X8337186Y8511973D01*
X8337184Y8511974D01*
X8337183Y8511974D01*
X8245727Y8524015D01*
X8200001Y8530035D01*
X8199999Y8530035D01*
X8131408Y8521005D01*
X8062817Y8511974D01*
X8062816Y8511974D01*
X8062813Y8511973D01*
X7934985Y8459026D01*
X7825209Y8374791D01*
X7740974Y8265015D01*
X7688027Y8137187D01*
X7688026Y8137182D01*
X7669965Y8000001D01*
X7669965Y8000000D01*
X5900000Y8000000D01*
X5900000Y11100000D01*
X14569965Y11100000D01*
X14588026Y10962819D01*
X14588027Y10962814D01*
X14640974Y10834985D01*
X14640975Y10834983D01*
X14640976Y10834982D01*
X14725209Y10725209D01*
X14834982Y10640976D01*
X14962817Y10588026D01*
X15085702Y10571848D01*
X15099999Y10569965D01*
X15100000Y10569965D01*
X15100001Y10569965D01*
X15112947Y10571670D01*
X15237183Y10588026D01*
X15365018Y10640976D01*
X15474791Y10725209D01*
X15559024Y10834982D01*
X15611974Y10962817D01*
X15630035Y11100000D01*
X15611974Y11237183D01*
X15559024Y11365017D01*
X15474791Y11474791D01*
X15474789Y11474792D01*
X15474789Y11474793D01*
X15365015Y11559026D01*
X15237186Y11611973D01*
X15237184Y11611974D01*
X15237183Y11611974D01*
X15145727Y11624015D01*
X15100001Y11630035D01*
X15099999Y11630035D01*
X15031408Y11621005D01*
X14962817Y11611974D01*
X14962816Y11611974D01*
X14962813Y11611973D01*
X14834985Y11559026D01*
X14725209Y11474791D01*
X14640974Y11365015D01*
X14588027Y11237187D01*
X14588026Y11237182D01*
X14569965Y11100001D01*
X14569965Y11100000D01*
X5900000Y11100000D01*
X5900000Y12725000D01*
X14569965Y12725000D01*
X14588026Y12587819D01*
X14588027Y12587814D01*
X14640974Y12459985D01*
X14640975Y12459983D01*
X14640976Y12459982D01*
X14725209Y12350209D01*
X14834982Y12265976D01*
X14962817Y12213026D01*
X15085702Y12196848D01*
X15099999Y12194965D01*
X15100000Y12194965D01*
X15100001Y12194965D01*
X15112947Y12196670D01*
X15237183Y12213026D01*
X15365018Y12265976D01*
X15474791Y12350209D01*
X15559024Y12459982D01*
X15611974Y12587817D01*
X15630035Y12725000D01*
X15611974Y12862183D01*
X15559024Y12990017D01*
X15474791Y13099791D01*
X15474789Y13099792D01*
X15474789Y13099793D01*
X15365015Y13184026D01*
X15237186Y13236973D01*
X15237184Y13236974D01*
X15237183Y13236974D01*
X15145727Y13249015D01*
X15100001Y13255035D01*
X15099999Y13255035D01*
X15031408Y13246005D01*
X14962817Y13236974D01*
X14962816Y13236974D01*
X14962813Y13236973D01*
X14834985Y13184026D01*
X14725209Y13099791D01*
X14640974Y12990015D01*
X14588027Y12862187D01*
X14588026Y12862182D01*
X14569965Y12725001D01*
X14569965Y12725000D01*
X5900000Y12725000D01*
X5900000Y14400000D01*
X10069965Y14400000D01*
X10088026Y14262819D01*
X10088027Y14262814D01*
X10140974Y14134985D01*
X10140975Y14134983D01*
X10140976Y14134982D01*
X10225209Y14025209D01*
X10334982Y13940976D01*
X10462817Y13888026D01*
X10585702Y13871848D01*
X10599999Y13869965D01*
X10600000Y13869965D01*
X10600001Y13869965D01*
X10612947Y13871670D01*
X10737183Y13888026D01*
X10865018Y13940976D01*
X10974791Y14025209D01*
X11059024Y14134982D01*
X11111974Y14262817D01*
X11130035Y14400000D01*
X11111974Y14537183D01*
X11059024Y14665017D01*
X10974791Y14774791D01*
X10974789Y14774792D01*
X10974789Y14774793D01*
X10865015Y14859026D01*
X10737186Y14911973D01*
X10737184Y14911974D01*
X10737183Y14911974D01*
X10645727Y14924015D01*
X10600001Y14930035D01*
X10599999Y14930035D01*
X10531408Y14921005D01*
X10462817Y14911974D01*
X10462816Y14911974D01*
X10462813Y14911973D01*
X10334985Y14859026D01*
X10225209Y14774791D01*
X10140974Y14665015D01*
X10088027Y14537187D01*
X10088026Y14537182D01*
X10069965Y14400001D01*
X10069965Y14400000D01*
X5900000Y14400000D01*
X5900000Y16025000D01*
X10119965Y16025000D01*
X10138026Y15887819D01*
X10138027Y15887814D01*
X10190974Y15759985D01*
X10190975Y15759983D01*
X10190976Y15759982D01*
X10275209Y15650209D01*
X10384982Y15565976D01*
X10512817Y15513026D01*
X10635702Y15496848D01*
X10649999Y15494965D01*
X10650000Y15494965D01*
X10650001Y15494965D01*
X10662947Y15496670D01*
X10787183Y15513026D01*
X10915018Y15565976D01*
X10974514Y15611631D01*
X11039681Y15636824D01*
X11108126Y15622786D01*
X11125480Y15611635D01*
X11184982Y15565976D01*
X11312817Y15513026D01*
X11435702Y15496848D01*
X11449999Y15494965D01*
X11450000Y15494965D01*
X11450001Y15494965D01*
X11462947Y15496670D01*
X11587183Y15513026D01*
X11715018Y15565976D01*
X11824791Y15650209D01*
X11909024Y15759982D01*
X11961974Y15887817D01*
X11980035Y16025000D01*
X11961974Y16162183D01*
X11909024Y16290017D01*
X11824791Y16399791D01*
X11824789Y16399792D01*
X11824789Y16399793D01*
X11715015Y16484026D01*
X11587186Y16536973D01*
X11587184Y16536974D01*
X11587183Y16536974D01*
X11495727Y16549015D01*
X11450001Y16555035D01*
X11449999Y16555035D01*
X11381408Y16546005D01*
X11312817Y16536974D01*
X11312816Y16536974D01*
X11312813Y16536973D01*
X11184984Y16484026D01*
X11184982Y16484024D01*
X11125486Y16438371D01*
X11060317Y16413177D01*
X10991872Y16427216D01*
X10974513Y16438371D01*
X10915015Y16484026D01*
X10787186Y16536973D01*
X10787184Y16536974D01*
X10787183Y16536974D01*
X10695727Y16549015D01*
X10650001Y16555035D01*
X10649999Y16555035D01*
X10581408Y16546005D01*
X10512817Y16536974D01*
X10512816Y16536974D01*
X10512813Y16536973D01*
X10384985Y16484026D01*
X10275209Y16399791D01*
X10190974Y16290015D01*
X10138027Y16162187D01*
X10138026Y16162182D01*
X10119965Y16025001D01*
X10119965Y16025000D01*
X5900000Y16025000D01*
X5900000Y16875500D01*
X5919685Y16942539D01*
X5972489Y16988294D01*
X6024000Y16999500D01*
X17375500Y16999500D01*
X17442539Y16979815D01*
G37*
%TD.AperFunction*%
%TD*%
%TA.AperFunction,Conductor*%
%TO.N,CH1*%
G36*
X8398803Y5317697D02*
G01*
X8405109Y5311339D01*
X8405689Y5304308D01*
X8327073Y4959102D01*
X8321895Y4951796D01*
X8315665Y4950000D01*
X8084335Y4950000D01*
X8076062Y4953427D01*
X8072927Y4959102D01*
X7994310Y5304310D01*
X7995814Y5313136D01*
X8001193Y5317696D01*
X8195480Y5399107D01*
X8204431Y5399143D01*
X8398803Y5317697D01*
G37*
%TD.AperFunction*%
%TD*%
%TA.AperFunction,Conductor*%
%TO.N,CH1*%
G36*
X1923938Y1746573D02*
G01*
X1927073Y1740898D01*
X2005689Y1395693D01*
X2004185Y1386865D01*
X1998803Y1382304D01*
X1804522Y1300895D01*
X1795567Y1300858D01*
X1795478Y1300895D01*
X1601196Y1382304D01*
X1594890Y1388662D01*
X1594310Y1395691D01*
X1672927Y1740899D01*
X1678105Y1748204D01*
X1684335Y1750000D01*
X1915665Y1750000D01*
X1923938Y1746573D01*
G37*
%TD.AperFunction*%
%TD*%
%TA.AperFunction,Conductor*%
%TO.N,OUT2*%
G36*
X15318356Y6321895D02*
G01*
X15319143Y6320350D01*
X15399790Y6127894D01*
X15400699Y6123335D01*
X15400038Y5912157D01*
X15396585Y5903895D01*
X15388301Y5900494D01*
X15387853Y5900504D01*
X15094205Y5912679D01*
X15086417Y5916096D01*
X14923411Y6079102D01*
X14919984Y6087375D01*
X14923411Y6095648D01*
X14925608Y6097373D01*
X15302287Y6325833D01*
X15311135Y6327192D01*
X15318356Y6321895D01*
G37*
%TD.AperFunction*%
%TD*%
%TA.AperFunction,Conductor*%
%TO.N,OUT2*%
G36*
X10136410Y2999985D02*
G01*
X10299984Y2836411D01*
X10303411Y2828138D01*
X10301615Y2821908D01*
X10113108Y2522221D01*
X10105802Y2517043D01*
X10098771Y2517623D01*
X9903830Y2597436D01*
X9897472Y2603742D01*
X9897435Y2603831D01*
X9817622Y2798772D01*
X9817659Y2807727D01*
X9822220Y2813109D01*
X9848770Y2829809D01*
X10121907Y3001617D01*
X10130735Y3003120D01*
X10136410Y2999985D01*
G37*
%TD.AperFunction*%
%TD*%
%TA.AperFunction,Conductor*%
%TO.N,OUT1*%
G36*
X15001228Y5382378D02*
G01*
X15196169Y5302565D01*
X15202527Y5296259D01*
X15202564Y5296170D01*
X15282377Y5101229D01*
X15282340Y5092274D01*
X15277779Y5086892D01*
X14978092Y4898385D01*
X14969264Y4896881D01*
X14963589Y4900016D01*
X14800015Y5063590D01*
X14796588Y5071863D01*
X14798384Y5078093D01*
X14986891Y5377780D01*
X14994197Y5382958D01*
X15001228Y5382378D01*
G37*
%TD.AperFunction*%
%TD*%
%TA.AperFunction,Conductor*%
%TO.N,OUT1*%
G36*
X12169468Y2727073D02*
G01*
X12176774Y2721895D01*
X12178570Y2715665D01*
X12178570Y2484336D01*
X12175143Y2476063D01*
X12169468Y2472928D01*
X11824262Y2394311D01*
X11815434Y2395815D01*
X11810873Y2401197D01*
X11779948Y2475000D01*
X11729463Y2595481D01*
X11729427Y2604432D01*
X11810874Y2798806D01*
X11817231Y2805110D01*
X11824260Y2805690D01*
X12169468Y2727073D01*
G37*
%TD.AperFunction*%
%TD*%
M02*
