M48
; DRILL file {KiCad 7.0.10} date Thu Apr 18 15:46:53 2024
; FORMAT={-:-/ absolute / inch / decimal}
; #@! TF.CreationDate,2024-04-18T15:46:53+08:00
; #@! TF.GenerationSoftware,Kicad,Pcbnew,7.0.10
; #@! TF.FileFunction,Plated,1,4,PTH
FMAT,2
INCH
; #@! TA.AperFunction,Plated,PTH,ViaDrill
T1C0.0079
; #@! TA.AperFunction,Plated,PTH,ViaDrill
T2C0.0157
%
G90
G05
T1
X0.0709Y0.0512
X0.149Y0.0512
X0.2559Y0.1654
X0.2986Y0.2207
X0.3228Y0.315
X0.3228Y0.2126
X0.3583Y0.2047
X0.374Y0.4764
X0.3898Y0.1024
X0.4154Y0.2067
X0.4173Y0.5669
X0.4193Y0.6309
X0.4508Y0.6309
X0.4618Y0.1024
X0.4843Y0.315
X0.5079Y0.2047
X0.5374Y0.4764
X0.5945Y0.501
X0.5945Y0.437
X0.5984Y0.2087
X0.6063Y0.2411
X0.6063Y0.1654
X0.628Y0.1102
X0.6457Y0.6339
T2
X0.5413Y0.0512
M30
