%TF.GenerationSoftware,KiCad,Pcbnew,7.0.10*%
%TF.CreationDate,2024-04-18T15:46:53+08:00*%
%TF.ProjectId,esp32c3-vertical,65737033-3263-4332-9d76-657274696361,rev?*%
%TF.SameCoordinates,Original*%
%TF.FileFunction,Copper,L1,Top*%
%TF.FilePolarity,Positive*%
%FSLAX46Y46*%
G04 Gerber Fmt 4.6, Leading zero omitted, Abs format (unit mm)*
G04 Created by KiCad (PCBNEW 7.0.10) date 2024-04-18 15:46:53*
%MOMM*%
%LPD*%
G01*
G04 APERTURE LIST*
G04 Aperture macros list*
%AMFreePoly0*
4,1,6,0.725000,-0.725000,-0.725000,-0.725000,-0.725000,0.125000,-0.125000,0.725000,0.725000,0.725000,0.725000,-0.725000,0.725000,-0.725000,$1*%
G04 Aperture macros list end*
%TA.AperFunction,SMDPad,CuDef*%
%ADD10R,1.000000X2.000000*%
%TD*%
%TA.AperFunction,SMDPad,CuDef*%
%ADD11R,0.400000X0.800000*%
%TD*%
%TA.AperFunction,SMDPad,CuDef*%
%ADD12R,0.800000X0.400000*%
%TD*%
%TA.AperFunction,SMDPad,CuDef*%
%ADD13FreePoly0,90.000000*%
%TD*%
%TA.AperFunction,SMDPad,CuDef*%
%ADD14R,1.450000X1.450000*%
%TD*%
%TA.AperFunction,SMDPad,CuDef*%
%ADD15R,0.700000X0.700000*%
%TD*%
%TA.AperFunction,ViaPad*%
%ADD16C,0.450000*%
%TD*%
%TA.AperFunction,ViaPad*%
%ADD17C,0.800000*%
%TD*%
%TA.AperFunction,Conductor*%
%ADD18C,0.250000*%
%TD*%
G04 APERTURE END LIST*
D10*
%TO.P,J8,1,Pin_1*%
%TO.N,+5V*%
X15700000Y1300000D03*
%TD*%
%TO.P,J7,1,Pin_1*%
%TO.N,GND*%
X13700000Y1300000D03*
%TD*%
%TO.P,J6,1,Pin_1*%
%TO.N,OUT1*%
X11728570Y1300000D03*
%TD*%
%TO.P,J5,1,Pin_1*%
%TO.N,OUT2*%
X9800000Y1300000D03*
%TD*%
%TO.P,J4,1,Pin_1*%
%TO.N,FUNC*%
X7800000Y1300000D03*
%TD*%
%TO.P,J3,1,Pin_1*%
%TO.N,unconnected-(J3-Pin_1-Pad1)*%
X5700000Y1300000D03*
%TD*%
%TO.P,J2,1,Pin_1*%
%TO.N,CH2*%
X3785714Y1300000D03*
%TD*%
%TO.P,J1,1,Pin_1*%
%TO.N,CH1*%
X1800000Y1300000D03*
%TD*%
D11*
%TO.P,U2,1,GND*%
%TO.N,GND*%
X7450000Y4225000D03*
%TO.P,U2,2,GND*%
X8250000Y4225000D03*
%TO.P,U2,3,3V3*%
%TO.N,+3.3V*%
X9050000Y4225000D03*
%TO.P,U2,4,NC*%
%TO.N,unconnected-(U2-NC-Pad4)*%
X9850000Y4225000D03*
%TO.P,U2,5,GPIO2/ADC1_CH2*%
%TO.N,Net-(U2-GPIO2{slash}ADC1_CH2)*%
X10650000Y4225000D03*
%TO.P,U2,6,GPIO3/ADC1_CH3*%
%TO.N,FUNC*%
X11450000Y4225000D03*
%TO.P,U2,7,NC*%
%TO.N,unconnected-(U2-NC-Pad7)*%
X12250000Y4225000D03*
%TO.P,U2,8,EN/CHIP_PU*%
%TO.N,EN*%
X13050000Y4225000D03*
%TO.P,U2,9,NC*%
%TO.N,unconnected-(U2-NC-Pad9)*%
X13850000Y4225000D03*
%TO.P,U2,10,NC*%
%TO.N,unconnected-(U2-NC-Pad10)*%
X14650000Y4225000D03*
%TO.P,U2,11,GND*%
%TO.N,GND*%
X15450000Y4225000D03*
D12*
%TO.P,U2,12,GPIO0/ADC1_CH0/XTAL_32K_P*%
%TO.N,OUT1*%
X16350000Y5325000D03*
%TO.P,U2,13,GPIO1/ADC1_CH1/XTAL_32K_N*%
%TO.N,OUT2*%
X16350000Y6125000D03*
%TO.P,U2,14,GND*%
%TO.N,GND*%
X16350000Y6925000D03*
%TO.P,U2,15,NC*%
%TO.N,unconnected-(U2-NC-Pad15)*%
X16350000Y7725000D03*
%TO.P,U2,16,GPIO10*%
%TO.N,CH1*%
X16350000Y8525000D03*
%TO.P,U2,17,NC*%
%TO.N,unconnected-(U2-NC-Pad17)*%
X16350000Y9325000D03*
%TO.P,U2,18,GPIO4/ADC1_CH4*%
%TO.N,CH2*%
X16350000Y10125000D03*
%TO.P,U2,19,GPIO5/ADC2_CH0*%
%TO.N,unconnected-(U2-GPIO5{slash}ADC2_CH0-Pad19)*%
X16350000Y10925000D03*
%TO.P,U2,20,GPIO6*%
%TO.N,unconnected-(U2-GPIO6-Pad20)*%
X16350000Y11725000D03*
%TO.P,U2,21,GPIO7*%
%TO.N,unconnected-(U2-GPIO7-Pad21)*%
X16350000Y12525000D03*
%TO.P,U2,22,GPIO8*%
%TO.N,Net-(U2-GPIO8)*%
X16350000Y13325000D03*
%TO.P,U2,23,GPIO9*%
%TO.N,OP*%
X16350000Y14125000D03*
%TO.P,U2,24,NC*%
%TO.N,unconnected-(U2-NC-Pad24)*%
X16350000Y14925000D03*
D11*
%TO.P,U2,25,NC*%
%TO.N,unconnected-(U2-NC-Pad25)*%
X15450000Y16025000D03*
%TO.P,U2,26,GPIO18/USB_D-*%
%TO.N,unconnected-(U2-GPIO18{slash}USB_D--Pad26)*%
X14650000Y16025000D03*
%TO.P,U2,27,GPIO19/USB_D+*%
%TO.N,unconnected-(U2-GPIO19{slash}USB_D+-Pad27)*%
X13850000Y16025000D03*
%TO.P,U2,28,NC*%
%TO.N,unconnected-(U2-NC-Pad28)*%
X13050000Y16025000D03*
%TO.P,U2,29,NC*%
%TO.N,unconnected-(U2-NC-Pad29)*%
X12250000Y16025000D03*
%TO.P,U2,30,GPIO20/U0RXD*%
%TO.N,U0RX*%
X11450000Y16025000D03*
%TO.P,U2,31,GPIO21/U0TXD*%
%TO.N,U0TX*%
X10650000Y16025000D03*
%TO.P,U2,32,NC*%
%TO.N,unconnected-(U2-NC-Pad32)*%
X9850000Y16025000D03*
%TO.P,U2,33,NC*%
%TO.N,unconnected-(U2-NC-Pad33)*%
X9050000Y16025000D03*
%TO.P,U2,34,NC*%
%TO.N,unconnected-(U2-NC-Pad34)*%
X8250000Y16025000D03*
%TO.P,U2,35,NC*%
%TO.N,unconnected-(U2-NC-Pad35)*%
X7450000Y16025000D03*
D12*
%TO.P,U2,36,GND*%
%TO.N,GND*%
X6550000Y14925000D03*
%TO.P,U2,37,GND*%
X6550000Y14125000D03*
%TO.P,U2,38,GND*%
X6550000Y13325000D03*
%TO.P,U2,39,GND*%
X6550000Y12525000D03*
%TO.P,U2,40,GND*%
X6550000Y11725000D03*
%TO.P,U2,41,GND*%
X6550000Y10925000D03*
%TO.P,U2,42,GND*%
X6550000Y10125000D03*
%TO.P,U2,43,GND*%
X6550000Y9325000D03*
%TO.P,U2,44,GND*%
X6550000Y8525000D03*
%TO.P,U2,45,GND*%
X6550000Y7725000D03*
%TO.P,U2,46,GND*%
X6550000Y6925000D03*
%TO.P,U2,47,GND*%
X6550000Y6125000D03*
%TO.P,U2,48,GND*%
X6550000Y5325000D03*
D13*
%TO.P,U2,49,GND*%
X9475000Y8150000D03*
D14*
X11450000Y8150000D03*
X13425000Y8150000D03*
X9475000Y10125000D03*
X11450000Y10125000D03*
X13425000Y10125000D03*
X9475000Y12100000D03*
X11450000Y12100000D03*
X13425000Y12100000D03*
D15*
%TO.P,U2,50,GND*%
X6500000Y16075000D03*
%TO.P,U2,51,GND*%
X16400000Y16075000D03*
%TO.P,U2,52,GND*%
X16400000Y4175000D03*
%TO.P,U2,53,GND*%
X6500000Y4175000D03*
%TD*%
D16*
%TO.N,GND*%
X13650000Y12100000D03*
%TO.N,+3.3V*%
X15100000Y11100000D03*
%TO.N,GND*%
X12300000Y8000000D03*
X9500000Y12100000D03*
%TO.N,U0RX*%
X11450000Y16025000D03*
%TO.N,U0TX*%
X10650000Y16025000D03*
%TO.N,OP*%
X10600000Y14400000D03*
%TO.N,CH2*%
X3785714Y1300000D03*
%TO.N,CH1*%
X1800000Y1300000D03*
%TO.N,CH2*%
X7583353Y5605549D03*
%TO.N,CH1*%
X8200000Y5400000D03*
%TO.N,GND*%
X15400000Y4200000D03*
%TO.N,OUT1*%
X15200000Y5300000D03*
X11728570Y2600000D03*
%TO.N,OUT2*%
X9900000Y2600000D03*
X15400000Y6125000D03*
%TO.N,+3.3V*%
X8200000Y8000000D03*
X9100000Y5200000D03*
%TO.N,GND*%
X6500000Y4200000D03*
X16400000Y16100000D03*
%TO.N,Net-(U2-GPIO8)*%
X15100000Y12725000D03*
%TO.N,Net-(U2-GPIO2{slash}ADC1_CH2)*%
X10550000Y5250000D03*
%TO.N,EN*%
X12900000Y5200000D03*
D17*
%TO.N,GND*%
X13750000Y1300000D03*
D16*
%TO.N,+5V*%
X15950000Y2800000D03*
%TD*%
D18*
%TO.N,GND*%
X17075000Y4850000D02*
X16400000Y4175000D01*
X16775000Y6925000D02*
X17075000Y6625000D01*
X17075000Y6625000D02*
X17075000Y4850000D01*
X16350000Y6925000D02*
X16775000Y6925000D01*
X12150000Y8150000D02*
X9475000Y8150000D01*
X12300000Y8000000D02*
X12150000Y8150000D01*
X12450000Y8150000D02*
X12300000Y8000000D01*
X9500000Y12100000D02*
X13425000Y12100000D01*
%TO.N,OP*%
X10875000Y14125000D02*
X10600000Y14400000D01*
X16350000Y14125000D02*
X10875000Y14125000D01*
%TO.N,FUNC*%
X11025000Y3150000D02*
X8750000Y3150000D01*
X11450000Y3575000D02*
X11025000Y3150000D01*
X8750000Y3150000D02*
X7800000Y2200000D01*
X11450000Y4225000D02*
X11450000Y3575000D01*
X7800000Y2200000D02*
X7800000Y1300000D01*
%TO.N,CH2*%
X8277804Y6300000D02*
X7583353Y5605549D01*
X13663604Y6300000D02*
X8277804Y6300000D01*
X14950000Y7586396D02*
X13663604Y6300000D01*
X14950000Y9375000D02*
X14950000Y7586396D01*
X15700000Y10125000D02*
X14950000Y9375000D01*
X16350000Y10125000D02*
X15700000Y10125000D01*
%TO.N,CH1*%
X15400000Y7400000D02*
X13800000Y5800000D01*
X8600000Y5800000D02*
X8200000Y5400000D01*
X15400000Y8025000D02*
X15400000Y7400000D01*
X15900000Y8525000D02*
X15400000Y8025000D01*
X13800000Y5800000D02*
X8600000Y5800000D01*
X16350000Y8525000D02*
X15900000Y8525000D01*
%TO.N,GND*%
X15400000Y4200000D02*
X15450000Y3450000D01*
%TO.N,OUT2*%
X9900000Y2600000D02*
X9900000Y1400000D01*
X9900000Y1400000D02*
X9800000Y1300000D01*
%TO.N,OUT1*%
X11728570Y2600000D02*
X11728570Y1300000D01*
%TO.N,OUT2*%
X15400000Y6125000D02*
X16350000Y6125000D01*
%TO.N,OUT1*%
X15200000Y5300000D02*
X16325000Y5300000D01*
X16325000Y5300000D02*
X16350000Y5325000D01*
%TO.N,GND*%
X11450000Y8150000D02*
X11450000Y12100000D01*
X13425000Y8150000D02*
X12450000Y8150000D01*
X13425000Y12100000D02*
X13425000Y8150000D01*
X9475000Y12100000D02*
X9500000Y12100000D01*
X9475000Y12100000D02*
X9475000Y8150000D01*
%TO.N,+3.3V*%
X9050000Y5150000D02*
X9100000Y5200000D01*
X9050000Y4225000D02*
X9050000Y5150000D01*
%TO.N,GND*%
X6500000Y4200000D02*
X6500000Y16075000D01*
X13700000Y1700000D02*
X13700000Y1300000D01*
X15450000Y3450000D02*
X13700000Y1700000D01*
X15450000Y4225000D02*
X15400000Y4200000D01*
X15500000Y4175000D02*
X15450000Y4225000D01*
X16400000Y4175000D02*
X15500000Y4175000D01*
%TO.N,Net-(U2-GPIO8)*%
X15700000Y13325000D02*
X16350000Y13325000D01*
X15100000Y12725000D02*
X15700000Y13325000D01*
%TO.N,GND*%
X6500000Y4175000D02*
X6500000Y4200000D01*
X8250000Y4225000D02*
X6550000Y4225000D01*
X6550000Y4225000D02*
X6500000Y4175000D01*
%TO.N,Net-(U2-GPIO2{slash}ADC1_CH2)*%
X10650000Y5150000D02*
X10650000Y4225000D01*
X10550000Y5250000D02*
X10650000Y5150000D01*
%TO.N,EN*%
X13050000Y5050000D02*
X12900000Y5200000D01*
X13050000Y4225000D02*
X13050000Y5050000D01*
%TO.N,+5V*%
X15950000Y2800000D02*
X15700000Y2550000D01*
X15700000Y2550000D02*
X15700000Y1300000D01*
%TD*%
%TA.AperFunction,Conductor*%
%TO.N,GND*%
G36*
X16915130Y4854844D02*
G01*
X17079843Y4690131D01*
X17083270Y4681858D01*
X17081978Y4676513D01*
X16754912Y4039593D01*
X16748084Y4033799D01*
X16740053Y4034118D01*
X16403805Y4172437D01*
X16397458Y4178753D01*
X16259117Y4515055D01*
X16259139Y4524009D01*
X16264590Y4529912D01*
X16901512Y4856980D01*
X16910437Y4857710D01*
X16915130Y4854844D01*
G37*
%TD.AperFunction*%
%TD*%
%TA.AperFunction,Conductor*%
%TO.N,GND*%
G36*
X16753850Y7037548D02*
G01*
X16754427Y7037206D01*
X16974794Y6897469D01*
X16979945Y6890144D01*
X16978409Y6881322D01*
X16976801Y6879315D01*
X16813904Y6716418D01*
X16805631Y6712991D01*
X16805336Y6712995D01*
X16342599Y6724683D01*
X16334415Y6728317D01*
X16331198Y6736674D01*
X16331247Y6737496D01*
X16345883Y6890144D01*
X16348531Y6917764D01*
X16352732Y6925671D01*
X16356965Y6927896D01*
X16744955Y7038574D01*
X16753850Y7037548D01*
G37*
%TD.AperFunction*%
%TD*%
%TA.AperFunction,Conductor*%
%TO.N,GND*%
G36*
X11922994Y8273312D02*
G01*
X12289832Y8226303D01*
X12297603Y8221852D01*
X12300045Y8214750D01*
X12300978Y8004898D01*
X12297588Y7996610D01*
X12297525Y7996547D01*
X12148290Y7848245D01*
X12140006Y7844844D01*
X12132753Y7847393D01*
X11914231Y8021487D01*
X11909895Y8029322D01*
X11909821Y8030638D01*
X11909821Y8261706D01*
X11913248Y8269979D01*
X11921521Y8273406D01*
X11922994Y8273312D01*
G37*
%TD.AperFunction*%
%TD*%
%TA.AperFunction,Conductor*%
%TO.N,GND*%
G36*
X10732529Y8867481D02*
G01*
X11442709Y8158279D01*
X11446142Y8150008D01*
X11442721Y8141733D01*
X11442709Y8141721D01*
X10732529Y7432520D01*
X10724254Y7429099D01*
X10716802Y7431785D01*
X10004240Y8021492D01*
X10000052Y8029407D01*
X10000000Y8030506D01*
X10000000Y8269495D01*
X10003427Y8277768D01*
X10004240Y8278509D01*
X10716803Y8868217D01*
X10725361Y8870850D01*
X10732529Y8867481D01*
G37*
%TD.AperFunction*%
%TD*%
%TA.AperFunction,Conductor*%
%TO.N,GND*%
G36*
X12177596Y8860859D02*
G01*
X12180549Y8855879D01*
X12312608Y8405505D01*
X12361611Y8238388D01*
X12361612Y8238387D01*
X12532072Y8067927D01*
X12535499Y8059654D01*
X12533960Y8053854D01*
X12182589Y7438297D01*
X12175512Y7432811D01*
X12166628Y7433936D01*
X12164163Y7435816D01*
X11457583Y8141019D01*
X11454148Y8149289D01*
X11457567Y8157565D01*
X11457576Y8157574D01*
X12161052Y8860862D01*
X12169324Y8864287D01*
X12177596Y8860859D01*
G37*
%TD.AperFunction*%
%TD*%
%TA.AperFunction,Conductor*%
%TO.N,GND*%
G36*
X13452529Y12181846D02*
G01*
X13642734Y12103975D01*
X13649091Y12097670D01*
X13650000Y12093148D01*
X13650000Y11886700D01*
X13646573Y11878427D01*
X13638300Y11875000D01*
X13550000Y11875000D01*
X13318208Y11875000D01*
X13309935Y11878427D01*
X13306508Y11886700D01*
X13307566Y11891562D01*
X13403247Y12101000D01*
X13437456Y12175881D01*
X13444010Y12181980D01*
X13452529Y12181846D01*
G37*
%TD.AperFunction*%
%TD*%
%TA.AperFunction,Conductor*%
%TO.N,GND*%
G36*
X9940898Y12227073D02*
G01*
X9948204Y12221895D01*
X9950000Y12215665D01*
X9950000Y11984336D01*
X9946573Y11976063D01*
X9940898Y11972928D01*
X9595692Y11894311D01*
X9586864Y11895815D01*
X9582303Y11901197D01*
X9551378Y11975000D01*
X9500893Y12095481D01*
X9500857Y12104432D01*
X9582304Y12298806D01*
X9588661Y12305110D01*
X9595690Y12305690D01*
X9940898Y12227073D01*
G37*
%TD.AperFunction*%
%TD*%
%TA.AperFunction,Conductor*%
%TO.N,GND*%
G36*
X10208197Y12818216D02*
G01*
X10920760Y12228509D01*
X10924948Y12220594D01*
X10925000Y12219495D01*
X10925000Y11980506D01*
X10921573Y11972233D01*
X10920760Y11971492D01*
X10208197Y11381785D01*
X10199638Y11379151D01*
X10192470Y11382520D01*
X9482290Y12091721D01*
X9478857Y12099992D01*
X9482278Y12108267D01*
X9482290Y12108279D01*
X10192471Y12817482D01*
X10200745Y12820902D01*
X10208197Y12818216D01*
G37*
%TD.AperFunction*%
%TD*%
%TA.AperFunction,Conductor*%
%TO.N,GND*%
G36*
X12707529Y12817481D02*
G01*
X13417709Y12108279D01*
X13421142Y12100008D01*
X13417721Y12091733D01*
X13417709Y12091721D01*
X12707529Y11382520D01*
X12699254Y11379099D01*
X12691802Y11381785D01*
X11979240Y11971492D01*
X11975052Y11979407D01*
X11975000Y11980506D01*
X11975000Y12219495D01*
X11978427Y12227768D01*
X11979240Y12228509D01*
X12691803Y12818217D01*
X12700361Y12820850D01*
X12707529Y12817481D01*
G37*
%TD.AperFunction*%
%TD*%
%TA.AperFunction,Conductor*%
%TO.N,OP*%
G36*
X10807105Y14482082D02*
G01*
X10812891Y14476864D01*
X10934674Y14252612D01*
X10936092Y14247028D01*
X10936092Y14018179D01*
X10932665Y14009906D01*
X10924392Y14006479D01*
X10919546Y14007530D01*
X10524143Y14187464D01*
X10518032Y14194010D01*
X10518160Y14202545D01*
X10597149Y14395481D01*
X10603452Y14401836D01*
X10798152Y14482097D01*
X10807105Y14482082D01*
G37*
%TD.AperFunction*%
%TD*%
%TA.AperFunction,Conductor*%
%TO.N,OP*%
G36*
X15954178Y14322908D02*
G01*
X15954524Y14322744D01*
X16116632Y14241892D01*
X16330007Y14135470D01*
X16335881Y14128711D01*
X16335255Y14119778D01*
X16330007Y14114530D01*
X15954559Y13927274D01*
X15945626Y13926648D01*
X15945229Y13926789D01*
X15757592Y13997153D01*
X15751049Y14003267D01*
X15750000Y14008108D01*
X15750000Y14241892D01*
X15753427Y14250165D01*
X15757592Y14252847D01*
X15945231Y14323212D01*
X15954178Y14322908D01*
G37*
%TD.AperFunction*%
%TD*%
%TA.AperFunction,Conductor*%
%TO.N,FUNC*%
G36*
X11455222Y4210256D02*
G01*
X11460470Y4205008D01*
X11647726Y3829560D01*
X11648352Y3820627D01*
X11648211Y3820230D01*
X11577847Y3632592D01*
X11571734Y3626049D01*
X11566892Y3625000D01*
X11333108Y3625000D01*
X11324835Y3628427D01*
X11322153Y3632592D01*
X11251788Y3820232D01*
X11252092Y3829179D01*
X11252246Y3829505D01*
X11439530Y4205009D01*
X11446289Y4210882D01*
X11455222Y4210256D01*
G37*
%TD.AperFunction*%
%TD*%
%TA.AperFunction,Conductor*%
%TO.N,CH2*%
G36*
X7819763Y6005534D02*
G01*
X7983337Y5841960D01*
X7986764Y5833687D01*
X7984968Y5827457D01*
X7916592Y5718754D01*
X7914961Y5716711D01*
X7851472Y5653221D01*
X7789863Y5532305D01*
X7789572Y5532453D01*
X7784539Y5526568D01*
X7775612Y5525873D01*
X7774803Y5526169D01*
X7587183Y5602985D01*
X7580825Y5609291D01*
X7580788Y5609380D01*
X7500975Y5804321D01*
X7501012Y5813276D01*
X7505573Y5818658D01*
X7532123Y5835358D01*
X7805260Y6007166D01*
X7814088Y6008669D01*
X7819763Y6005534D01*
G37*
%TD.AperFunction*%
%TD*%
%TA.AperFunction,Conductor*%
%TO.N,CH2*%
G36*
X15954178Y10322908D02*
G01*
X15954524Y10322744D01*
X16116632Y10241892D01*
X16330007Y10135470D01*
X16335881Y10128711D01*
X16335255Y10119778D01*
X16330007Y10114530D01*
X15954559Y9927274D01*
X15945626Y9926648D01*
X15945229Y9926789D01*
X15757592Y9997153D01*
X15751049Y10003267D01*
X15750000Y10008108D01*
X15750000Y10241892D01*
X15753427Y10250165D01*
X15757592Y10252847D01*
X15945231Y10323212D01*
X15954178Y10322908D01*
G37*
%TD.AperFunction*%
%TD*%
%TA.AperFunction,Conductor*%
%TO.N,CH1*%
G36*
X8436410Y5799985D02*
G01*
X8599984Y5636411D01*
X8603411Y5628138D01*
X8601615Y5621908D01*
X8413108Y5322221D01*
X8405802Y5317043D01*
X8398771Y5317623D01*
X8203830Y5397436D01*
X8197472Y5403742D01*
X8197435Y5403831D01*
X8117622Y5598772D01*
X8117659Y5607727D01*
X8122220Y5613109D01*
X8148770Y5629809D01*
X8421907Y5801617D01*
X8430735Y5803120D01*
X8436410Y5799985D01*
G37*
%TD.AperFunction*%
%TD*%
%TA.AperFunction,Conductor*%
%TO.N,CH1*%
G36*
X15954979Y8650933D02*
G01*
X16323211Y8534408D01*
X16330065Y8528645D01*
X16330836Y8519723D01*
X16325073Y8512869D01*
X16324921Y8512792D01*
X15952930Y8326468D01*
X15946734Y8325268D01*
X15886602Y8330196D01*
X15879285Y8333584D01*
X15716191Y8496678D01*
X15712764Y8504951D01*
X15716191Y8513224D01*
X15718483Y8515007D01*
X15945494Y8649833D01*
X15954357Y8651110D01*
X15954979Y8650933D01*
G37*
%TD.AperFunction*%
%TD*%
%TA.AperFunction,Conductor*%
%TO.N,GND*%
G36*
X15611330Y4200061D02*
G01*
X15619587Y4196597D01*
X15622977Y4188309D01*
X15622828Y4186503D01*
X15555972Y3770956D01*
X15551275Y3763332D01*
X15545199Y3761140D01*
X15314298Y3745746D01*
X15305816Y3748615D01*
X15302333Y3753994D01*
X15300145Y3761140D01*
X15195226Y4103775D01*
X15196080Y4112687D01*
X15201888Y4117988D01*
X15397740Y4200078D01*
X15402309Y4200987D01*
X15611330Y4200061D01*
G37*
%TD.AperFunction*%
%TD*%
%TA.AperFunction,Conductor*%
%TO.N,GND*%
G36*
X15454949Y4209835D02*
G01*
X15460278Y4204423D01*
X15639947Y3829710D01*
X15640434Y3820768D01*
X15640207Y3820175D01*
X15565806Y3640473D01*
X15559475Y3634140D01*
X15555774Y3633275D01*
X15322834Y3617746D01*
X15314351Y3620615D01*
X15310868Y3625998D01*
X15308642Y3633275D01*
X15251365Y3820537D01*
X15252081Y3829176D01*
X15439259Y4204587D01*
X15446016Y4210459D01*
X15454949Y4209835D01*
G37*
%TD.AperFunction*%
%TD*%
%TA.AperFunction,Conductor*%
%TO.N,OUT2*%
G36*
X10098803Y2517697D02*
G01*
X10105109Y2511339D01*
X10105689Y2504308D01*
X10027073Y2159102D01*
X10021895Y2151796D01*
X10015665Y2150000D01*
X9784335Y2150000D01*
X9776062Y2153427D01*
X9772927Y2159102D01*
X9694310Y2504310D01*
X9695814Y2513136D01*
X9701193Y2517696D01*
X9895480Y2599107D01*
X9904431Y2599143D01*
X10098803Y2517697D01*
G37*
%TD.AperFunction*%
%TD*%
%TA.AperFunction,Conductor*%
%TO.N,OUT2*%
G36*
X10028126Y2596573D02*
G01*
X10028474Y2596210D01*
X10294561Y2305934D01*
X10297625Y2297520D01*
X10296403Y2292800D01*
X9811334Y1321692D01*
X9804571Y1315822D01*
X9795639Y1316453D01*
X9790096Y1322352D01*
X9379040Y2291573D01*
X9378964Y2300527D01*
X9382784Y2305496D01*
X9771878Y2597657D01*
X9778903Y2600000D01*
X10019853Y2600000D01*
X10028126Y2596573D01*
G37*
%TD.AperFunction*%
%TD*%
%TA.AperFunction,Conductor*%
%TO.N,OUT1*%
G36*
X11927373Y2517697D02*
G01*
X11933679Y2511339D01*
X11934259Y2504308D01*
X11855643Y2159102D01*
X11850465Y2151796D01*
X11844235Y2150000D01*
X11612905Y2150000D01*
X11604632Y2153427D01*
X11601497Y2159102D01*
X11522880Y2504310D01*
X11524384Y2513136D01*
X11529763Y2517696D01*
X11724050Y2599107D01*
X11733001Y2599143D01*
X11927373Y2517697D01*
G37*
%TD.AperFunction*%
%TD*%
%TA.AperFunction,Conductor*%
%TO.N,OUT1*%
G36*
X11856775Y2597436D02*
G01*
X12221187Y2305906D01*
X12225506Y2298063D01*
X12224345Y2291543D01*
X11739037Y1319955D01*
X11732274Y1314085D01*
X11723342Y1314716D01*
X11718103Y1319955D01*
X11232794Y2291543D01*
X11232163Y2300475D01*
X11235949Y2305904D01*
X11600365Y2597436D01*
X11607674Y2600000D01*
X11849466Y2600000D01*
X11856775Y2597436D01*
G37*
%TD.AperFunction*%
%TD*%
%TA.AperFunction,Conductor*%
%TO.N,OUT2*%
G36*
X15840898Y6252073D02*
G01*
X15848204Y6246895D01*
X15850000Y6240665D01*
X15850000Y6009336D01*
X15846573Y6001063D01*
X15840898Y5997928D01*
X15495692Y5919311D01*
X15486864Y5920815D01*
X15482303Y5926197D01*
X15451378Y6000000D01*
X15400893Y6120481D01*
X15400857Y6129432D01*
X15482304Y6323806D01*
X15488661Y6330110D01*
X15495690Y6330690D01*
X15840898Y6252073D01*
G37*
%TD.AperFunction*%
%TD*%
%TA.AperFunction,Conductor*%
%TO.N,OUT2*%
G36*
X15954178Y6322908D02*
G01*
X15954524Y6322744D01*
X16116632Y6241892D01*
X16330007Y6135470D01*
X16335881Y6128711D01*
X16335255Y6119778D01*
X16330007Y6114530D01*
X15954559Y5927274D01*
X15945626Y5926648D01*
X15945229Y5926789D01*
X15757592Y5997153D01*
X15751049Y6003267D01*
X15750000Y6008108D01*
X15750000Y6241892D01*
X15753427Y6250165D01*
X15757592Y6252847D01*
X15945231Y6323212D01*
X15954178Y6322908D01*
G37*
%TD.AperFunction*%
%TD*%
%TA.AperFunction,Conductor*%
%TO.N,OUT1*%
G36*
X15640898Y5427073D02*
G01*
X15648204Y5421895D01*
X15650000Y5415665D01*
X15650000Y5184336D01*
X15646573Y5176063D01*
X15640898Y5172928D01*
X15295692Y5094311D01*
X15286864Y5095815D01*
X15282303Y5101197D01*
X15251378Y5175000D01*
X15200893Y5295481D01*
X15200857Y5304432D01*
X15282304Y5498806D01*
X15288661Y5505110D01*
X15295690Y5505690D01*
X15640898Y5427073D01*
G37*
%TD.AperFunction*%
%TD*%
%TA.AperFunction,Conductor*%
%TO.N,OUT1*%
G36*
X15954646Y5506368D02*
G01*
X16131416Y5425479D01*
X16328742Y5335185D01*
X16334839Y5328627D01*
X16334513Y5319678D01*
X16329096Y5314076D01*
X15953867Y5126930D01*
X15945807Y5126049D01*
X15758862Y5172785D01*
X15751667Y5178116D01*
X15750000Y5184136D01*
X15750000Y5417206D01*
X15753427Y5425479D01*
X15757193Y5428003D01*
X15944900Y5506364D01*
X15945278Y5506523D01*
X15954232Y5506547D01*
X15954646Y5506368D01*
G37*
%TD.AperFunction*%
%TD*%
%TA.AperFunction,Conductor*%
%TO.N,GND*%
G36*
X11577768Y9596573D02*
G01*
X11578509Y9595760D01*
X12168215Y8883198D01*
X12170849Y8874639D01*
X12167480Y8867471D01*
X11458279Y8157291D01*
X11450008Y8153858D01*
X11441733Y8157279D01*
X11441721Y8157291D01*
X10732519Y8867471D01*
X10729098Y8875746D01*
X10731783Y8883197D01*
X11321491Y9595761D01*
X11329406Y9599948D01*
X11330505Y9600000D01*
X11569495Y9600000D01*
X11577768Y9596573D01*
G37*
%TD.AperFunction*%
%TD*%
%TA.AperFunction,Conductor*%
%TO.N,GND*%
G36*
X11458267Y12092722D02*
G01*
X11458279Y12092710D01*
X12167480Y11382530D01*
X12170901Y11374255D01*
X12168215Y11366803D01*
X11578509Y10654240D01*
X11570594Y10650052D01*
X11569495Y10650000D01*
X11330505Y10650000D01*
X11322232Y10653427D01*
X11321491Y10654240D01*
X10731784Y11366803D01*
X10729150Y11375362D01*
X10732518Y11382529D01*
X11441721Y12092711D01*
X11449992Y12096143D01*
X11458267Y12092722D01*
G37*
%TD.AperFunction*%
%TD*%
%TA.AperFunction,Conductor*%
%TO.N,GND*%
G36*
X12685633Y8270964D02*
G01*
X12690084Y8263193D01*
X12690179Y8261706D01*
X12690179Y8030638D01*
X12686752Y8022365D01*
X12685769Y8021487D01*
X12467246Y7847393D01*
X12458640Y7844918D01*
X12451709Y7848245D01*
X12424064Y7875717D01*
X12302473Y7996549D01*
X12299021Y8004809D01*
X12299954Y8214752D01*
X12303418Y8223008D01*
X12310166Y8226303D01*
X12676994Y8273311D01*
X12685633Y8270964D01*
G37*
%TD.AperFunction*%
%TD*%
%TA.AperFunction,Conductor*%
%TO.N,GND*%
G36*
X12708820Y8777222D02*
G01*
X12709800Y8776454D01*
X13416286Y8158942D01*
X13420260Y8150917D01*
X13417395Y8142433D01*
X13416859Y8141860D01*
X12710283Y7435284D01*
X12702010Y7431857D01*
X12693737Y7435284D01*
X12692157Y7437247D01*
X12388388Y7911613D01*
X12218557Y8081444D01*
X12215130Y8089717D01*
X12217248Y8096430D01*
X12692526Y8774360D01*
X12700079Y8779165D01*
X12708820Y8777222D01*
G37*
%TD.AperFunction*%
%TD*%
%TA.AperFunction,Conductor*%
%TO.N,GND*%
G36*
X13452529Y12181846D02*
G01*
X13642734Y12103975D01*
X13649091Y12097670D01*
X13650000Y12093148D01*
X13650000Y11886700D01*
X13646573Y11878427D01*
X13638300Y11875000D01*
X13550000Y11875000D01*
X13318208Y11875000D01*
X13309935Y11878427D01*
X13306508Y11886700D01*
X13307566Y11891562D01*
X13403247Y12101000D01*
X13437456Y12175881D01*
X13444010Y12181980D01*
X13452529Y12181846D01*
G37*
%TD.AperFunction*%
%TD*%
%TA.AperFunction,Conductor*%
%TO.N,GND*%
G36*
X13552768Y9596573D02*
G01*
X13553509Y9595760D01*
X14143215Y8883198D01*
X14145849Y8874639D01*
X14142480Y8867471D01*
X13433279Y8157291D01*
X13425008Y8153858D01*
X13416733Y8157279D01*
X13416721Y8157291D01*
X12707519Y8867471D01*
X12704098Y8875746D01*
X12706783Y8883197D01*
X13296491Y9595761D01*
X13304406Y9599948D01*
X13305505Y9600000D01*
X13544495Y9600000D01*
X13552768Y9596573D01*
G37*
%TD.AperFunction*%
%TD*%
%TA.AperFunction,Conductor*%
%TO.N,GND*%
G36*
X13433267Y12092722D02*
G01*
X13433279Y12092710D01*
X14142480Y11382530D01*
X14145901Y11374255D01*
X14143215Y11366803D01*
X13553509Y10654240D01*
X13545594Y10650052D01*
X13544495Y10650000D01*
X13305505Y10650000D01*
X13297232Y10653427D01*
X13296491Y10654240D01*
X12706784Y11366803D01*
X12704150Y11375362D01*
X12707518Y11382529D01*
X13416721Y12092711D01*
X13424992Y12096143D01*
X13433267Y12092722D01*
G37*
%TD.AperFunction*%
%TD*%
%TA.AperFunction,Conductor*%
%TO.N,GND*%
G36*
X9502192Y12100082D02*
G01*
X9698158Y12017967D01*
X9704464Y12011609D01*
X9704841Y12003808D01*
X9602504Y11663305D01*
X9596841Y11656369D01*
X9591299Y11654973D01*
X9359893Y11654973D01*
X9351620Y11658400D01*
X9348356Y11664729D01*
X9277289Y12086418D01*
X9279293Y12095145D01*
X9286882Y12099899D01*
X9288764Y12100062D01*
X9497622Y12100990D01*
X9502192Y12100082D01*
G37*
%TD.AperFunction*%
%TD*%
%TA.AperFunction,Conductor*%
%TO.N,GND*%
G36*
X9483267Y12092722D02*
G01*
X9483279Y12092710D01*
X10192480Y11382530D01*
X10195901Y11374255D01*
X10193215Y11366803D01*
X9603509Y10654240D01*
X9595594Y10650052D01*
X9594495Y10650000D01*
X9355505Y10650000D01*
X9347232Y10653427D01*
X9346491Y10654240D01*
X8756784Y11366803D01*
X8754150Y11375362D01*
X8757518Y11382529D01*
X9466721Y12092711D01*
X9474992Y12096143D01*
X9483267Y12092722D01*
G37*
%TD.AperFunction*%
%TD*%
%TA.AperFunction,Conductor*%
%TO.N,+3.3V*%
G36*
X9102192Y5200082D02*
G01*
X9297481Y5118251D01*
X9303787Y5111893D01*
X9303913Y5103348D01*
X9178897Y4770325D01*
X9177849Y4767534D01*
X9171733Y4760993D01*
X9166895Y4759946D01*
X8935446Y4759946D01*
X8927173Y4763373D01*
X8923821Y4770325D01*
X8912247Y4872183D01*
X8876472Y5187040D01*
X8878943Y5195644D01*
X8886776Y5199983D01*
X8888044Y5200058D01*
X9097622Y5200990D01*
X9102192Y5200082D01*
G37*
%TD.AperFunction*%
%TD*%
%TA.AperFunction,Conductor*%
%TO.N,+3.3V*%
G36*
X9175165Y4821573D02*
G01*
X9177847Y4817408D01*
X9248211Y4629771D01*
X9247907Y4620822D01*
X9247726Y4620441D01*
X9060470Y4244993D01*
X9053711Y4239119D01*
X9044778Y4239745D01*
X9039530Y4244993D01*
X8986262Y4351795D01*
X8852272Y4620443D01*
X8851647Y4629374D01*
X8851767Y4629715D01*
X8922153Y4817408D01*
X8928267Y4823951D01*
X8933108Y4825000D01*
X9166892Y4825000D01*
X9175165Y4821573D01*
G37*
%TD.AperFunction*%
%TD*%
%TA.AperFunction,Conductor*%
%TO.N,GND*%
G36*
X6623938Y4646573D02*
G01*
X6627073Y4640898D01*
X6705689Y4295693D01*
X6704185Y4286865D01*
X6698803Y4282304D01*
X6504522Y4200895D01*
X6495567Y4200858D01*
X6495478Y4200895D01*
X6301196Y4282304D01*
X6294890Y4288662D01*
X6294310Y4295691D01*
X6372927Y4640899D01*
X6378105Y4648204D01*
X6384335Y4650000D01*
X6615665Y4650000D01*
X6623938Y4646573D01*
G37*
%TD.AperFunction*%
%TD*%
%TA.AperFunction,Conductor*%
%TO.N,GND*%
G36*
X6508259Y16067717D02*
G01*
X6843351Y15731668D01*
X6846766Y15723390D01*
X6844908Y15717080D01*
X6628454Y15380373D01*
X6621097Y15375267D01*
X6618612Y15375000D01*
X6381388Y15375000D01*
X6373115Y15378427D01*
X6371546Y15380373D01*
X6155091Y15717080D01*
X6153500Y15725892D01*
X6156646Y15731666D01*
X6491716Y16067693D01*
X6499983Y16071131D01*
X6508259Y16067717D01*
G37*
%TD.AperFunction*%
%TD*%
%TA.AperFunction,Conductor*%
%TO.N,GND*%
G36*
X6626885Y4871573D02*
G01*
X6628454Y4869627D01*
X6844908Y4532921D01*
X6846499Y4524109D01*
X6843351Y4518333D01*
X6508285Y4182309D01*
X6500017Y4178870D01*
X6491739Y4182285D01*
X6491715Y4182309D01*
X6156648Y4518333D01*
X6153233Y4526611D01*
X6155090Y4532918D01*
X6371546Y4869627D01*
X6378903Y4874733D01*
X6381388Y4875000D01*
X6618612Y4875000D01*
X6626885Y4871573D01*
G37*
%TD.AperFunction*%
%TD*%
%TA.AperFunction,Conductor*%
%TO.N,GND*%
G36*
X13895695Y2055887D02*
G01*
X13896273Y2055346D01*
X14061454Y1890165D01*
X14064758Y1883583D01*
X14148047Y1313368D01*
X14145852Y1304686D01*
X14138161Y1300100D01*
X14136491Y1299977D01*
X13754168Y1299302D01*
X13745889Y1302714D01*
X13474848Y1575113D01*
X13471443Y1583393D01*
X13474328Y1591057D01*
X13879189Y2054770D01*
X13887209Y2058746D01*
X13895695Y2055887D01*
G37*
%TD.AperFunction*%
%TD*%
%TA.AperFunction,Conductor*%
%TO.N,GND*%
G36*
X14471108Y2635998D02*
G01*
X14636818Y2470288D01*
X14640245Y2462015D01*
X14639639Y2458298D01*
X14203619Y1157037D01*
X14197741Y1150281D01*
X14189105Y1149565D01*
X13708254Y1296554D01*
X13701344Y1302250D01*
X13700008Y1308636D01*
X13775399Y2293368D01*
X13779448Y2301356D01*
X13781865Y2302956D01*
X14457636Y2638207D01*
X14466570Y2638813D01*
X14471108Y2635998D01*
G37*
%TD.AperFunction*%
%TD*%
%TA.AperFunction,Conductor*%
%TO.N,GND*%
G36*
X15836696Y4302504D02*
G01*
X15843631Y4296842D01*
X15845027Y4291300D01*
X15845027Y4059893D01*
X15841600Y4051620D01*
X15835271Y4048356D01*
X15413582Y3977290D01*
X15404855Y3979294D01*
X15400101Y3986883D01*
X15399938Y3988766D01*
X15399010Y4197624D01*
X15399918Y4202192D01*
X15482034Y4398161D01*
X15488391Y4404465D01*
X15496189Y4404842D01*
X15836696Y4302504D01*
G37*
%TD.AperFunction*%
%TD*%
%TA.AperFunction,Conductor*%
%TO.N,GND*%
G36*
X15657059Y4397905D02*
G01*
X15843594Y4303251D01*
X15849421Y4296451D01*
X15850000Y4292817D01*
X15850000Y4059065D01*
X15846573Y4050792D01*
X15841223Y4047736D01*
X15656928Y4000178D01*
X15648061Y4001429D01*
X15645252Y4003743D01*
X15456803Y4216203D01*
X15453877Y4224666D01*
X15457792Y4232720D01*
X15644050Y4396263D01*
X15652526Y4399145D01*
X15657059Y4397905D01*
G37*
%TD.AperFunction*%
%TD*%
%TA.AperFunction,Conductor*%
%TO.N,GND*%
G36*
X16056667Y4518352D02*
G01*
X16392691Y4183285D01*
X16396130Y4175017D01*
X16392715Y4166739D01*
X16392691Y4166715D01*
X16056667Y3831649D01*
X16048389Y3828234D01*
X16042079Y3830092D01*
X15705373Y4046546D01*
X15700267Y4053903D01*
X15700000Y4056388D01*
X15700000Y4293613D01*
X15703427Y4301886D01*
X15705367Y4303451D01*
X16042081Y4519910D01*
X16050891Y4521500D01*
X16056667Y4518352D01*
G37*
%TD.AperFunction*%
%TD*%
%TA.AperFunction,Conductor*%
%TO.N,Net-(U2-GPIO8)*%
G36*
X15954178Y13522908D02*
G01*
X15954524Y13522744D01*
X16116632Y13441892D01*
X16330007Y13335470D01*
X16335881Y13328711D01*
X16335255Y13319778D01*
X16330007Y13314530D01*
X15954559Y13127274D01*
X15945626Y13126648D01*
X15945229Y13126789D01*
X15757592Y13197153D01*
X15751049Y13203267D01*
X15750000Y13208108D01*
X15750000Y13441892D01*
X15753427Y13450165D01*
X15757592Y13452847D01*
X15945231Y13523212D01*
X15954178Y13522908D01*
G37*
%TD.AperFunction*%
%TD*%
%TA.AperFunction,Conductor*%
%TO.N,Net-(U2-GPIO8)*%
G36*
X15336410Y13124985D02*
G01*
X15499984Y12961411D01*
X15503411Y12953138D01*
X15501615Y12946908D01*
X15313108Y12647221D01*
X15305802Y12642043D01*
X15298771Y12642623D01*
X15103830Y12722436D01*
X15097472Y12728742D01*
X15097435Y12728831D01*
X15017622Y12923772D01*
X15017659Y12932727D01*
X15022220Y12938109D01*
X15048770Y12954809D01*
X15321907Y13126617D01*
X15330735Y13128120D01*
X15336410Y13124985D01*
G37*
%TD.AperFunction*%
%TD*%
%TA.AperFunction,Conductor*%
%TO.N,GND*%
G36*
X6513582Y4422711D02*
G01*
X6935272Y4351644D01*
X6942860Y4346891D01*
X6945027Y4340108D01*
X6945027Y4108701D01*
X6941600Y4100428D01*
X6936695Y4097496D01*
X6596192Y3995159D01*
X6587282Y3996060D01*
X6582033Y4001842D01*
X6499918Y4197808D01*
X6499010Y4202378D01*
X6499938Y4411228D01*
X6503402Y4419484D01*
X6511690Y4422874D01*
X6513582Y4422711D01*
G37*
%TD.AperFunction*%
%TD*%
%TA.AperFunction,Conductor*%
%TO.N,GND*%
G36*
X8051914Y4422059D02*
G01*
X8055321Y4419706D01*
X8242665Y4233294D01*
X8246112Y4225029D01*
X8242706Y4216747D01*
X8242664Y4216706D01*
X8055325Y4030299D01*
X8047044Y4026893D01*
X8042965Y4027638D01*
X7857592Y4097153D01*
X7851049Y4103267D01*
X7850000Y4108108D01*
X7850000Y4341892D01*
X7853427Y4350165D01*
X7857592Y4352847D01*
X8042967Y4422363D01*
X8051914Y4422059D01*
G37*
%TD.AperFunction*%
%TD*%
%TA.AperFunction,Conductor*%
%TO.N,GND*%
G36*
X6857530Y4521235D02*
G01*
X7193532Y4353234D01*
X7199400Y4346469D01*
X7200000Y4342769D01*
X7200000Y4106010D01*
X7196573Y4097737D01*
X7195116Y4096500D01*
X6857770Y3854716D01*
X6849049Y3852682D01*
X6842994Y3855651D01*
X6507912Y4166727D01*
X6504180Y4174868D01*
X6507297Y4183262D01*
X6507596Y4183573D01*
X6844038Y4519056D01*
X6852315Y4522470D01*
X6857530Y4521235D01*
G37*
%TD.AperFunction*%
%TD*%
%TA.AperFunction,Conductor*%
%TO.N,Net-(U2-GPIO2{slash}ADC1_CH2)*%
G36*
X10763352Y5250052D02*
G01*
X10771610Y5246588D01*
X10775000Y5238352D01*
X10775000Y4838112D01*
X10771573Y4829839D01*
X10763300Y4826412D01*
X10531967Y4826412D01*
X10523694Y4829839D01*
X10521680Y4832538D01*
X10348287Y5152528D01*
X10347359Y5161434D01*
X10353000Y5168389D01*
X10354052Y5168893D01*
X10547808Y5250082D01*
X10552376Y5250990D01*
X10763352Y5250052D01*
G37*
%TD.AperFunction*%
%TD*%
%TA.AperFunction,Conductor*%
%TO.N,Net-(U2-GPIO2{slash}ADC1_CH2)*%
G36*
X10775165Y4821573D02*
G01*
X10777847Y4817408D01*
X10848211Y4629771D01*
X10847907Y4620822D01*
X10847726Y4620441D01*
X10660470Y4244993D01*
X10653711Y4239119D01*
X10644778Y4239745D01*
X10639530Y4244993D01*
X10586262Y4351795D01*
X10452272Y4620443D01*
X10451647Y4629374D01*
X10451767Y4629715D01*
X10522153Y4817408D01*
X10528267Y4823951D01*
X10533108Y4825000D01*
X10766892Y4825000D01*
X10775165Y4821573D01*
G37*
%TD.AperFunction*%
%TD*%
%TA.AperFunction,Conductor*%
%TO.N,EN*%
G36*
X13114750Y5200046D02*
G01*
X13123007Y5196582D01*
X13126302Y5189833D01*
X13173310Y4823008D01*
X13170963Y4814367D01*
X13163192Y4809916D01*
X13161705Y4809821D01*
X12930638Y4809821D01*
X12922365Y4813248D01*
X12921487Y4814231D01*
X12747392Y5032754D01*
X12744917Y5041360D01*
X12748243Y5048290D01*
X12896548Y5197528D01*
X12904807Y5200979D01*
X13114750Y5200046D01*
G37*
%TD.AperFunction*%
%TD*%
%TA.AperFunction,Conductor*%
%TO.N,EN*%
G36*
X13175165Y4821573D02*
G01*
X13177847Y4817408D01*
X13248211Y4629771D01*
X13247907Y4620822D01*
X13247726Y4620441D01*
X13060470Y4244993D01*
X13053711Y4239119D01*
X13044778Y4239745D01*
X13039530Y4244993D01*
X12986262Y4351795D01*
X12852272Y4620443D01*
X12851647Y4629374D01*
X12851767Y4629715D01*
X12922153Y4817408D01*
X12928267Y4823951D01*
X12933108Y4825000D01*
X13166892Y4825000D01*
X13175165Y4821573D01*
G37*
%TD.AperFunction*%
%TD*%
%TA.AperFunction,Conductor*%
%TO.N,+5V*%
G36*
X15753172Y2881582D02*
G01*
X15945479Y2802851D01*
X15951836Y2796546D01*
X15951862Y2796483D01*
X16032420Y2601063D01*
X16032405Y2592108D01*
X16028023Y2586823D01*
X15827923Y2455472D01*
X15821503Y2453553D01*
X15592064Y2453553D01*
X15583791Y2456980D01*
X15580364Y2465253D01*
X15581150Y2469470D01*
X15628534Y2592108D01*
X15737825Y2874972D01*
X15744004Y2881453D01*
X15752956Y2881668D01*
X15753172Y2881582D01*
G37*
%TD.AperFunction*%
%TD*%
%TA.AperFunction,Conductor*%
%TO.N,+5V*%
G36*
X15796661Y2806874D02*
G01*
X15797062Y2806491D01*
X15964422Y2639131D01*
X15965761Y2637529D01*
X16196044Y2305701D01*
X16197946Y2296950D01*
X16196895Y2293795D01*
X15711234Y1323160D01*
X15704468Y1317294D01*
X15695536Y1317932D01*
X15689831Y1324247D01*
X15322408Y2293290D01*
X15322679Y2302241D01*
X15324688Y2305306D01*
X15780135Y2806092D01*
X15788235Y2809905D01*
X15796661Y2806874D01*
G37*
%TD.AperFunction*%
%TD*%
M02*
