%TF.GenerationSoftware,KiCad,Pcbnew,7.0.10*%
%TF.CreationDate,2024-04-18T15:46:53+08:00*%
%TF.ProjectId,esp32c3-vertical,65737033-3263-4332-9d76-657274696361,rev?*%
%TF.SameCoordinates,Original*%
%TF.FileFunction,Copper,L3,Inr*%
%TF.FilePolarity,Positive*%
%FSLAX46Y46*%
G04 Gerber Fmt 4.6, Leading zero omitted, Abs format (unit mm)*
G04 Created by KiCad (PCBNEW 7.0.10) date 2024-04-18 15:46:53*
%MOMM*%
%LPD*%
G01*
G04 APERTURE LIST*
%TA.AperFunction,ViaPad*%
%ADD10C,0.450000*%
%TD*%
%TA.AperFunction,ViaPad*%
%ADD11C,0.800000*%
%TD*%
G04 APERTURE END LIST*
D10*
%TO.N,GND*%
X13650000Y12100000D03*
%TO.N,+3.3V*%
X15100000Y11100000D03*
%TO.N,GND*%
X12300000Y8000000D03*
X9500000Y12100000D03*
%TO.N,U0RX*%
X11450000Y16025000D03*
%TO.N,U0TX*%
X10650000Y16025000D03*
%TO.N,OP*%
X10600000Y14400000D03*
%TO.N,CH2*%
X3785714Y1300000D03*
%TO.N,CH1*%
X1800000Y1300000D03*
%TO.N,CH2*%
X7583353Y5605549D03*
%TO.N,CH1*%
X8200000Y5400000D03*
%TO.N,GND*%
X15400000Y4200000D03*
%TO.N,OUT1*%
X15200000Y5300000D03*
X11728570Y2600000D03*
%TO.N,OUT2*%
X9900000Y2600000D03*
X15400000Y6125000D03*
%TO.N,+3.3V*%
X8200000Y8000000D03*
X9100000Y5200000D03*
%TO.N,GND*%
X6500000Y4200000D03*
X16400000Y16100000D03*
%TO.N,Net-(U2-GPIO8)*%
X15100000Y12725000D03*
%TO.N,Net-(U2-GPIO2{slash}ADC1_CH2)*%
X10550000Y5250000D03*
%TO.N,EN*%
X12900000Y5200000D03*
D11*
%TO.N,GND*%
X13750000Y1300000D03*
D10*
%TO.N,+5V*%
X15950000Y2800000D03*
%TD*%
%TA.AperFunction,Conductor*%
%TO.N,+3.3V*%
G36*
X17442539Y16979815D02*
G01*
X17488294Y16927011D01*
X17499500Y16875500D01*
X17499500Y2124500D01*
X17479815Y2057461D01*
X17427011Y2011706D01*
X17375500Y2000500D01*
X16524760Y2000500D01*
X16524554Y2000541D01*
X16499998Y2000541D01*
X16499807Y2000462D01*
X16499619Y2000385D01*
X16499615Y2000382D01*
X16499459Y2000001D01*
X16499476Y1975384D01*
X16499471Y1975384D01*
X16499500Y1975241D01*
X16499500Y124500D01*
X16479815Y57461D01*
X16427011Y11706D01*
X16375500Y500D01*
X1124500Y500D01*
X1057461Y20185D01*
X1011706Y72989D01*
X1000500Y124500D01*
X1000500Y1300000D01*
X1269965Y1300000D01*
X1288026Y1162819D01*
X1288027Y1162814D01*
X1340974Y1034985D01*
X1340975Y1034983D01*
X1340976Y1034982D01*
X1425209Y925209D01*
X1534982Y840976D01*
X1662817Y788026D01*
X1785702Y771848D01*
X1799999Y769965D01*
X1800000Y769965D01*
X1800001Y769965D01*
X1812947Y771670D01*
X1937183Y788026D01*
X2065018Y840976D01*
X2174791Y925209D01*
X2259024Y1034982D01*
X2311974Y1162817D01*
X2330035Y1300000D01*
X3255679Y1300000D01*
X3273740Y1162819D01*
X3273741Y1162814D01*
X3326688Y1034985D01*
X3326689Y1034983D01*
X3326690Y1034982D01*
X3410923Y925209D01*
X3520696Y840976D01*
X3648531Y788026D01*
X3771416Y771848D01*
X3785713Y769965D01*
X3785714Y769965D01*
X3785715Y769965D01*
X3798661Y771670D01*
X3922897Y788026D01*
X4050732Y840976D01*
X4160505Y925209D01*
X4244738Y1034982D01*
X4297688Y1162817D01*
X4315749Y1300000D01*
X13044355Y1300000D01*
X13064859Y1131131D01*
X13064860Y1131126D01*
X13125182Y972069D01*
X13157527Y925210D01*
X13221817Y832071D01*
X13327505Y738440D01*
X13349150Y719264D01*
X13499773Y640211D01*
X13499775Y640210D01*
X13664944Y599500D01*
X13835056Y599500D01*
X14000225Y640210D01*
X14079692Y681919D01*
X14150849Y719264D01*
X14150850Y719266D01*
X14150852Y719266D01*
X14278183Y832071D01*
X14374818Y972070D01*
X14435140Y1131128D01*
X14455645Y1300000D01*
X14435140Y1468872D01*
X14374818Y1627930D01*
X14278183Y1767929D01*
X14150852Y1880734D01*
X14150849Y1880737D01*
X14000226Y1959790D01*
X13835056Y2000500D01*
X13664944Y2000500D01*
X13499773Y1959790D01*
X13349150Y1880737D01*
X13221816Y1767928D01*
X13125182Y1627932D01*
X13064860Y1468875D01*
X13064859Y1468870D01*
X13044355Y1300000D01*
X4315749Y1300000D01*
X4297688Y1437183D01*
X4244738Y1565017D01*
X4160505Y1674791D01*
X4160503Y1674792D01*
X4160503Y1674793D01*
X4050729Y1759026D01*
X3922900Y1811973D01*
X3922898Y1811974D01*
X3922897Y1811974D01*
X3831441Y1824015D01*
X3785715Y1830035D01*
X3785713Y1830035D01*
X3717122Y1821005D01*
X3648531Y1811974D01*
X3648530Y1811974D01*
X3648527Y1811973D01*
X3520699Y1759026D01*
X3410923Y1674791D01*
X3326688Y1565015D01*
X3273741Y1437187D01*
X3273740Y1437182D01*
X3255679Y1300001D01*
X3255679Y1300000D01*
X2330035Y1300000D01*
X2311974Y1437183D01*
X2259024Y1565017D01*
X2174791Y1674791D01*
X2174789Y1674792D01*
X2174789Y1674793D01*
X2065015Y1759026D01*
X1937186Y1811973D01*
X1937184Y1811974D01*
X1937183Y1811974D01*
X1845727Y1824015D01*
X1800001Y1830035D01*
X1799999Y1830035D01*
X1731408Y1821005D01*
X1662817Y1811974D01*
X1662816Y1811974D01*
X1662813Y1811973D01*
X1534985Y1759026D01*
X1425209Y1674791D01*
X1340974Y1565015D01*
X1288027Y1437187D01*
X1288026Y1437182D01*
X1269965Y1300001D01*
X1269965Y1300000D01*
X1000500Y1300000D01*
X1000500Y1975241D01*
X1000528Y1975384D01*
X1000524Y1975384D01*
X1000539Y1999998D01*
X1000541Y2000000D01*
X1000462Y2000192D01*
X1000384Y2000382D01*
X1000380Y2000386D01*
X1000194Y2000462D01*
X1000002Y2000541D01*
X975446Y2000541D01*
X975240Y2000500D01*
X124500Y2000500D01*
X57461Y2020185D01*
X11706Y2072989D01*
X500Y2124500D01*
X500Y2600000D01*
X9369965Y2600000D01*
X9388026Y2462819D01*
X9388027Y2462814D01*
X9440974Y2334985D01*
X9440975Y2334983D01*
X9440976Y2334982D01*
X9525209Y2225209D01*
X9634982Y2140976D01*
X9762817Y2088026D01*
X9885702Y2071848D01*
X9899999Y2069965D01*
X9900000Y2069965D01*
X9900001Y2069965D01*
X9912947Y2071670D01*
X10037183Y2088026D01*
X10165018Y2140976D01*
X10274791Y2225209D01*
X10359024Y2334982D01*
X10411974Y2462817D01*
X10430035Y2600000D01*
X11198535Y2600000D01*
X11216596Y2462819D01*
X11216597Y2462814D01*
X11269544Y2334985D01*
X11269545Y2334983D01*
X11269546Y2334982D01*
X11353779Y2225209D01*
X11463552Y2140976D01*
X11591387Y2088026D01*
X11714272Y2071848D01*
X11728569Y2069965D01*
X11728570Y2069965D01*
X11728571Y2069965D01*
X11741517Y2071670D01*
X11865753Y2088026D01*
X11993588Y2140976D01*
X12103361Y2225209D01*
X12187594Y2334982D01*
X12240544Y2462817D01*
X12258605Y2600000D01*
X12240544Y2737183D01*
X12214525Y2800000D01*
X15419965Y2800000D01*
X15428235Y2737182D01*
X15438026Y2662819D01*
X15438027Y2662814D01*
X15490974Y2534985D01*
X15490975Y2534983D01*
X15490976Y2534982D01*
X15575209Y2425209D01*
X15684982Y2340976D01*
X15812817Y2288026D01*
X15935702Y2271848D01*
X15949999Y2269965D01*
X15950000Y2269965D01*
X15950001Y2269965D01*
X15962947Y2271670D01*
X16087183Y2288026D01*
X16215018Y2340976D01*
X16324791Y2425209D01*
X16409024Y2534982D01*
X16461974Y2662817D01*
X16480035Y2800000D01*
X16461974Y2937183D01*
X16426674Y3022406D01*
X16409025Y3065015D01*
X16409024Y3065016D01*
X16409024Y3065017D01*
X16324791Y3174791D01*
X16324789Y3174792D01*
X16324789Y3174793D01*
X16215015Y3259026D01*
X16087186Y3311973D01*
X16087184Y3311974D01*
X16087183Y3311974D01*
X15995727Y3324015D01*
X15950001Y3330035D01*
X15949999Y3330035D01*
X15881408Y3321005D01*
X15812817Y3311974D01*
X15812816Y3311974D01*
X15812813Y3311973D01*
X15684985Y3259026D01*
X15575209Y3174791D01*
X15490974Y3065015D01*
X15438027Y2937187D01*
X15438026Y2937184D01*
X15438026Y2937183D01*
X15419965Y2800000D01*
X12214525Y2800000D01*
X12187594Y2865017D01*
X12103361Y2974791D01*
X12103359Y2974792D01*
X12103359Y2974793D01*
X11993585Y3059026D01*
X11865756Y3111973D01*
X11865754Y3111974D01*
X11865753Y3111974D01*
X11774297Y3124015D01*
X11728571Y3130035D01*
X11728569Y3130035D01*
X11659978Y3121005D01*
X11591387Y3111974D01*
X11591386Y3111974D01*
X11591383Y3111973D01*
X11463555Y3059026D01*
X11353779Y2974791D01*
X11269544Y2865015D01*
X11216597Y2737187D01*
X11216596Y2737182D01*
X11198535Y2600001D01*
X11198535Y2600000D01*
X10430035Y2600000D01*
X10411974Y2737183D01*
X10359024Y2865017D01*
X10274791Y2974791D01*
X10274789Y2974792D01*
X10274789Y2974793D01*
X10165015Y3059026D01*
X10037186Y3111973D01*
X10037184Y3111974D01*
X10037183Y3111974D01*
X9945727Y3124015D01*
X9900001Y3130035D01*
X9899999Y3130035D01*
X9831408Y3121005D01*
X9762817Y3111974D01*
X9762816Y3111974D01*
X9762813Y3111973D01*
X9634985Y3059026D01*
X9525209Y2974791D01*
X9440974Y2865015D01*
X9388027Y2737187D01*
X9388026Y2737182D01*
X9369965Y2600001D01*
X9369965Y2600000D01*
X500Y2600000D01*
X500Y2876000D01*
X20185Y2943039D01*
X72989Y2988794D01*
X124500Y3000000D01*
X5900000Y3000000D01*
X5900000Y3753415D01*
X5919685Y3820454D01*
X5972489Y3866209D01*
X6041647Y3876153D01*
X6105203Y3847128D01*
X6122375Y3828902D01*
X6125209Y3825209D01*
X6234982Y3740976D01*
X6362817Y3688026D01*
X6485702Y3671848D01*
X6499999Y3669965D01*
X6500000Y3669965D01*
X6500001Y3669965D01*
X6512947Y3671670D01*
X6637183Y3688026D01*
X6765018Y3740976D01*
X6874791Y3825209D01*
X6959024Y3934982D01*
X7011974Y4062817D01*
X7030035Y4200000D01*
X7011974Y4337183D01*
X6959024Y4465017D01*
X6874791Y4574791D01*
X6874789Y4574792D01*
X6874789Y4574793D01*
X6805778Y4627747D01*
X6765018Y4659024D01*
X6765017Y4659025D01*
X6765015Y4659026D01*
X6637186Y4711973D01*
X6637184Y4711974D01*
X6637183Y4711974D01*
X6545727Y4724015D01*
X6500001Y4730035D01*
X6499999Y4730035D01*
X6431408Y4721005D01*
X6362817Y4711974D01*
X6362816Y4711974D01*
X6362813Y4711973D01*
X6234985Y4659026D01*
X6218772Y4646585D01*
X6125209Y4574791D01*
X6125207Y4574790D01*
X6125206Y4574788D01*
X6122374Y4571097D01*
X6065946Y4529895D01*
X5996200Y4525742D01*
X5935280Y4559955D01*
X5902528Y4621673D01*
X5900000Y4646585D01*
X5900000Y5605549D01*
X7053318Y5605549D01*
X7065237Y5515015D01*
X7071379Y5468368D01*
X7071380Y5468363D01*
X7124327Y5340534D01*
X7124328Y5340532D01*
X7124329Y5340531D01*
X7208562Y5230758D01*
X7318335Y5146525D01*
X7318336Y5146525D01*
X7318337Y5146524D01*
X7346203Y5134982D01*
X7446170Y5093575D01*
X7569055Y5077397D01*
X7583352Y5075514D01*
X7583353Y5075514D01*
X7583354Y5075514D01*
X7615216Y5079709D01*
X7696979Y5090474D01*
X7766013Y5079709D01*
X7811538Y5043024D01*
X7825207Y5025211D01*
X7825209Y5025209D01*
X7934982Y4940976D01*
X8062817Y4888026D01*
X8182606Y4872255D01*
X8199999Y4869965D01*
X8200000Y4869965D01*
X8200001Y4869965D01*
X8212947Y4871670D01*
X8337183Y4888026D01*
X8465018Y4940976D01*
X8574791Y5025209D01*
X8659024Y5134982D01*
X8706665Y5250000D01*
X10019965Y5250000D01*
X10035107Y5134985D01*
X10038026Y5112819D01*
X10038027Y5112814D01*
X10090974Y4984985D01*
X10090975Y4984983D01*
X10090976Y4984982D01*
X10175209Y4875209D01*
X10284982Y4790976D01*
X10412817Y4738026D01*
X10535702Y4721848D01*
X10549999Y4719965D01*
X10550000Y4719965D01*
X10550001Y4719965D01*
X10562947Y4721670D01*
X10687183Y4738026D01*
X10815018Y4790976D01*
X10924791Y4875209D01*
X11009024Y4984982D01*
X11061974Y5112817D01*
X11073452Y5200000D01*
X12369965Y5200000D01*
X12386354Y5075514D01*
X12388026Y5062819D01*
X12388027Y5062814D01*
X12440974Y4934985D01*
X12440975Y4934983D01*
X12440976Y4934982D01*
X12525209Y4825209D01*
X12634982Y4740976D01*
X12634983Y4740976D01*
X12634984Y4740975D01*
X12642104Y4738026D01*
X12762817Y4688026D01*
X12885702Y4671848D01*
X12899999Y4669965D01*
X12900000Y4669965D01*
X12900001Y4669965D01*
X12912947Y4671670D01*
X13037183Y4688026D01*
X13165018Y4740976D01*
X13274791Y4825209D01*
X13359024Y4934982D01*
X13411974Y5062817D01*
X13430035Y5200000D01*
X13416869Y5300000D01*
X14669965Y5300000D01*
X14683130Y5200001D01*
X14688026Y5162819D01*
X14688027Y5162814D01*
X14740974Y5034985D01*
X14740975Y5034983D01*
X14740976Y5034982D01*
X14825209Y4925209D01*
X14934982Y4840976D01*
X15020441Y4805579D01*
X15074842Y4761741D01*
X15096908Y4695447D01*
X15079630Y4627747D01*
X15048476Y4592645D01*
X15025210Y4574793D01*
X14940974Y4465015D01*
X14888027Y4337187D01*
X14888026Y4337182D01*
X14869965Y4200001D01*
X14869965Y4200000D01*
X14888026Y4062819D01*
X14888027Y4062814D01*
X14940974Y3934985D01*
X14940975Y3934983D01*
X14940976Y3934982D01*
X15025209Y3825209D01*
X15134982Y3740976D01*
X15262817Y3688026D01*
X15385702Y3671848D01*
X15399999Y3669965D01*
X15400000Y3669965D01*
X15400001Y3669965D01*
X15412947Y3671670D01*
X15537183Y3688026D01*
X15665018Y3740976D01*
X15774791Y3825209D01*
X15859024Y3934982D01*
X15911974Y4062817D01*
X15930035Y4200000D01*
X15911974Y4337183D01*
X15859024Y4465017D01*
X15774791Y4574791D01*
X15774789Y4574792D01*
X15774789Y4574793D01*
X15705778Y4627747D01*
X15665018Y4659024D01*
X15665017Y4659025D01*
X15665015Y4659026D01*
X15579561Y4694421D01*
X15525157Y4738261D01*
X15503092Y4804555D01*
X15520371Y4872255D01*
X15551526Y4907358D01*
X15574791Y4925209D01*
X15659024Y5034982D01*
X15711974Y5162817D01*
X15730035Y5300000D01*
X15711974Y5437183D01*
X15665147Y5550233D01*
X15657679Y5619701D01*
X15688954Y5682180D01*
X15704219Y5696057D01*
X15774791Y5750209D01*
X15859024Y5859982D01*
X15911974Y5987817D01*
X15930035Y6125000D01*
X15911974Y6262183D01*
X15859024Y6390017D01*
X15774791Y6499791D01*
X15774789Y6499792D01*
X15774789Y6499793D01*
X15665015Y6584026D01*
X15537186Y6636973D01*
X15537184Y6636974D01*
X15537183Y6636974D01*
X15445727Y6649015D01*
X15400001Y6655035D01*
X15399999Y6655035D01*
X15331408Y6646005D01*
X15262817Y6636974D01*
X15262816Y6636974D01*
X15262813Y6636973D01*
X15134985Y6584026D01*
X15025209Y6499791D01*
X14940974Y6390015D01*
X14888027Y6262187D01*
X14888026Y6262182D01*
X14869965Y6125001D01*
X14869965Y6125000D01*
X14888025Y5987820D01*
X14888025Y5987818D01*
X14888026Y5987817D01*
X14926238Y5895563D01*
X14934852Y5874768D01*
X14942320Y5805298D01*
X14911044Y5742819D01*
X14895777Y5728941D01*
X14825211Y5674794D01*
X14740974Y5565015D01*
X14688027Y5437187D01*
X14688026Y5437184D01*
X14688026Y5437183D01*
X14669965Y5300000D01*
X13416869Y5300000D01*
X13411974Y5337183D01*
X13359024Y5465017D01*
X13274791Y5574791D01*
X13274789Y5574792D01*
X13274789Y5574793D01*
X13165015Y5659026D01*
X13037186Y5711973D01*
X13037184Y5711974D01*
X13037183Y5711974D01*
X12908310Y5728941D01*
X12900001Y5730035D01*
X12899999Y5730035D01*
X12891690Y5728941D01*
X12762817Y5711974D01*
X12762816Y5711974D01*
X12762813Y5711973D01*
X12634985Y5659026D01*
X12525209Y5574791D01*
X12440974Y5465015D01*
X12388027Y5337187D01*
X12388026Y5337184D01*
X12388026Y5337183D01*
X12369965Y5200000D01*
X11073452Y5200000D01*
X11080035Y5250000D01*
X11061974Y5387183D01*
X11009024Y5515017D01*
X10924791Y5624791D01*
X10924789Y5624792D01*
X10924789Y5624793D01*
X10815015Y5709026D01*
X10687186Y5761973D01*
X10687184Y5761974D01*
X10687183Y5761974D01*
X10589816Y5774793D01*
X10550001Y5780035D01*
X10549999Y5780035D01*
X10510184Y5774793D01*
X10412817Y5761974D01*
X10412816Y5761974D01*
X10412813Y5761973D01*
X10284985Y5709026D01*
X10175209Y5624791D01*
X10090974Y5515015D01*
X10038027Y5387187D01*
X10038026Y5387184D01*
X10038026Y5387183D01*
X10019965Y5250000D01*
X8706665Y5250000D01*
X8711974Y5262817D01*
X8730035Y5400000D01*
X8711974Y5537183D01*
X8669493Y5639743D01*
X8659025Y5665015D01*
X8659024Y5665016D01*
X8659024Y5665017D01*
X8574791Y5774791D01*
X8574789Y5774792D01*
X8574789Y5774793D01*
X8465015Y5859026D01*
X8337186Y5911973D01*
X8337184Y5911974D01*
X8337183Y5911974D01*
X8231848Y5925842D01*
X8200001Y5930035D01*
X8199998Y5930035D01*
X8086372Y5915076D01*
X8017337Y5925842D01*
X7971812Y5962528D01*
X7958144Y5980340D01*
X7848368Y6064575D01*
X7720539Y6117522D01*
X7720537Y6117523D01*
X7720536Y6117523D01*
X7629080Y6129564D01*
X7583354Y6135584D01*
X7583352Y6135584D01*
X7514761Y6126554D01*
X7446170Y6117523D01*
X7446169Y6117523D01*
X7446166Y6117522D01*
X7318338Y6064575D01*
X7208562Y5980340D01*
X7124327Y5870564D01*
X7071380Y5742736D01*
X7071379Y5742731D01*
X7055852Y5624793D01*
X7053318Y5605549D01*
X5900000Y5605549D01*
X5900000Y8000000D01*
X11769965Y8000000D01*
X11788026Y7862819D01*
X11788027Y7862814D01*
X11840974Y7734985D01*
X11840975Y7734983D01*
X11840976Y7734982D01*
X11925209Y7625209D01*
X12034982Y7540976D01*
X12162817Y7488026D01*
X12285702Y7471848D01*
X12299999Y7469965D01*
X12300000Y7469965D01*
X12300001Y7469965D01*
X12312947Y7471670D01*
X12437183Y7488026D01*
X12565018Y7540976D01*
X12674791Y7625209D01*
X12759024Y7734982D01*
X12811974Y7862817D01*
X12830035Y8000000D01*
X12811974Y8137183D01*
X12759024Y8265017D01*
X12674791Y8374791D01*
X12674789Y8374792D01*
X12674789Y8374793D01*
X12565015Y8459026D01*
X12437186Y8511973D01*
X12437184Y8511974D01*
X12437183Y8511974D01*
X12345727Y8524015D01*
X12300001Y8530035D01*
X12299999Y8530035D01*
X12231408Y8521005D01*
X12162817Y8511974D01*
X12162816Y8511974D01*
X12162813Y8511973D01*
X12034985Y8459026D01*
X11925209Y8374791D01*
X11840974Y8265015D01*
X11788027Y8137187D01*
X11788026Y8137182D01*
X11769965Y8000001D01*
X11769965Y8000000D01*
X5900000Y8000000D01*
X5900000Y12100000D01*
X8969965Y12100000D01*
X8988026Y11962819D01*
X8988027Y11962814D01*
X9040974Y11834985D01*
X9040975Y11834983D01*
X9040976Y11834982D01*
X9125209Y11725209D01*
X9234982Y11640976D01*
X9362817Y11588026D01*
X9485702Y11571848D01*
X9499999Y11569965D01*
X9500000Y11569965D01*
X9500001Y11569965D01*
X9512947Y11571670D01*
X9637183Y11588026D01*
X9765018Y11640976D01*
X9874791Y11725209D01*
X9959024Y11834982D01*
X10011974Y11962817D01*
X10030035Y12100000D01*
X13119965Y12100000D01*
X13138026Y11962819D01*
X13138027Y11962814D01*
X13190974Y11834985D01*
X13190975Y11834983D01*
X13190976Y11834982D01*
X13275209Y11725209D01*
X13384982Y11640976D01*
X13512817Y11588026D01*
X13635702Y11571848D01*
X13649999Y11569965D01*
X13650000Y11569965D01*
X13650001Y11569965D01*
X13662947Y11571670D01*
X13787183Y11588026D01*
X13915018Y11640976D01*
X14024791Y11725209D01*
X14109024Y11834982D01*
X14161974Y11962817D01*
X14180035Y12100000D01*
X14161974Y12237183D01*
X14109024Y12365017D01*
X14024791Y12474791D01*
X14024789Y12474792D01*
X14024789Y12474793D01*
X13915015Y12559026D01*
X13787186Y12611973D01*
X13787184Y12611974D01*
X13787183Y12611974D01*
X13695727Y12624015D01*
X13650001Y12630035D01*
X13649999Y12630035D01*
X13581408Y12621005D01*
X13512817Y12611974D01*
X13512816Y12611974D01*
X13512813Y12611973D01*
X13384985Y12559026D01*
X13275209Y12474791D01*
X13190974Y12365015D01*
X13138027Y12237187D01*
X13138026Y12237182D01*
X13119965Y12100001D01*
X13119965Y12100000D01*
X10030035Y12100000D01*
X10011974Y12237183D01*
X9959024Y12365017D01*
X9874791Y12474791D01*
X9874789Y12474792D01*
X9874789Y12474793D01*
X9765015Y12559026D01*
X9637186Y12611973D01*
X9637184Y12611974D01*
X9637183Y12611974D01*
X9545727Y12624015D01*
X9500001Y12630035D01*
X9499999Y12630035D01*
X9431408Y12621005D01*
X9362817Y12611974D01*
X9362816Y12611974D01*
X9362813Y12611973D01*
X9234985Y12559026D01*
X9125209Y12474791D01*
X9040974Y12365015D01*
X8988027Y12237187D01*
X8988026Y12237182D01*
X8969965Y12100001D01*
X8969965Y12100000D01*
X5900000Y12100000D01*
X5900000Y12725000D01*
X14569965Y12725000D01*
X14588026Y12587819D01*
X14588027Y12587814D01*
X14640974Y12459985D01*
X14640975Y12459983D01*
X14640976Y12459982D01*
X14725209Y12350209D01*
X14834982Y12265976D01*
X14962817Y12213026D01*
X15085702Y12196848D01*
X15099999Y12194965D01*
X15100000Y12194965D01*
X15100001Y12194965D01*
X15112947Y12196670D01*
X15237183Y12213026D01*
X15365018Y12265976D01*
X15474791Y12350209D01*
X15559024Y12459982D01*
X15611974Y12587817D01*
X15630035Y12725000D01*
X15611974Y12862183D01*
X15559024Y12990017D01*
X15474791Y13099791D01*
X15474789Y13099792D01*
X15474789Y13099793D01*
X15365015Y13184026D01*
X15237186Y13236973D01*
X15237184Y13236974D01*
X15237183Y13236974D01*
X15145727Y13249015D01*
X15100001Y13255035D01*
X15099999Y13255035D01*
X15031408Y13246005D01*
X14962817Y13236974D01*
X14962816Y13236974D01*
X14962813Y13236973D01*
X14834985Y13184026D01*
X14725209Y13099791D01*
X14640974Y12990015D01*
X14588027Y12862187D01*
X14588026Y12862182D01*
X14569965Y12725001D01*
X14569965Y12725000D01*
X5900000Y12725000D01*
X5900000Y14400000D01*
X10069965Y14400000D01*
X10088026Y14262819D01*
X10088027Y14262814D01*
X10140974Y14134985D01*
X10140975Y14134983D01*
X10140976Y14134982D01*
X10225209Y14025209D01*
X10334982Y13940976D01*
X10462817Y13888026D01*
X10585702Y13871848D01*
X10599999Y13869965D01*
X10600000Y13869965D01*
X10600001Y13869965D01*
X10612947Y13871670D01*
X10737183Y13888026D01*
X10865018Y13940976D01*
X10974791Y14025209D01*
X11059024Y14134982D01*
X11111974Y14262817D01*
X11130035Y14400000D01*
X11111974Y14537183D01*
X11059024Y14665017D01*
X10974791Y14774791D01*
X10974789Y14774792D01*
X10974789Y14774793D01*
X10865015Y14859026D01*
X10737186Y14911973D01*
X10737184Y14911974D01*
X10737183Y14911974D01*
X10645727Y14924015D01*
X10600001Y14930035D01*
X10599999Y14930035D01*
X10531408Y14921005D01*
X10462817Y14911974D01*
X10462816Y14911974D01*
X10462813Y14911973D01*
X10334985Y14859026D01*
X10225209Y14774791D01*
X10140974Y14665015D01*
X10088027Y14537187D01*
X10088026Y14537182D01*
X10069965Y14400001D01*
X10069965Y14400000D01*
X5900000Y14400000D01*
X5900000Y16025000D01*
X10119965Y16025000D01*
X10138026Y15887819D01*
X10138027Y15887814D01*
X10190974Y15759985D01*
X10190975Y15759983D01*
X10190976Y15759982D01*
X10275209Y15650209D01*
X10384982Y15565976D01*
X10512817Y15513026D01*
X10635702Y15496848D01*
X10649999Y15494965D01*
X10650000Y15494965D01*
X10650001Y15494965D01*
X10662947Y15496670D01*
X10787183Y15513026D01*
X10915018Y15565976D01*
X10974514Y15611631D01*
X11039681Y15636824D01*
X11108126Y15622786D01*
X11125480Y15611635D01*
X11184982Y15565976D01*
X11312817Y15513026D01*
X11435702Y15496848D01*
X11449999Y15494965D01*
X11450000Y15494965D01*
X11450001Y15494965D01*
X11462947Y15496670D01*
X11587183Y15513026D01*
X11715018Y15565976D01*
X11824791Y15650209D01*
X11909024Y15759982D01*
X11961974Y15887817D01*
X11980035Y16025000D01*
X11970161Y16100000D01*
X15869965Y16100000D01*
X15888026Y15962819D01*
X15888027Y15962814D01*
X15940974Y15834985D01*
X15940975Y15834983D01*
X15940976Y15834982D01*
X16025209Y15725209D01*
X16134982Y15640976D01*
X16262817Y15588026D01*
X16385702Y15571848D01*
X16399999Y15569965D01*
X16400000Y15569965D01*
X16400001Y15569965D01*
X16412947Y15571670D01*
X16537183Y15588026D01*
X16665018Y15640976D01*
X16774791Y15725209D01*
X16859024Y15834982D01*
X16911974Y15962817D01*
X16930035Y16100000D01*
X16911974Y16237183D01*
X16859024Y16365017D01*
X16774791Y16474791D01*
X16774789Y16474792D01*
X16774789Y16474793D01*
X16665015Y16559026D01*
X16537186Y16611973D01*
X16537184Y16611974D01*
X16537183Y16611974D01*
X16445727Y16624015D01*
X16400001Y16630035D01*
X16399999Y16630035D01*
X16331408Y16621005D01*
X16262817Y16611974D01*
X16262816Y16611974D01*
X16262813Y16611973D01*
X16134985Y16559026D01*
X16025209Y16474791D01*
X15940974Y16365015D01*
X15888027Y16237187D01*
X15888026Y16237182D01*
X15869965Y16100001D01*
X15869965Y16100000D01*
X11970161Y16100000D01*
X11961974Y16162183D01*
X11909024Y16290017D01*
X11824791Y16399791D01*
X11824789Y16399792D01*
X11824789Y16399793D01*
X11758220Y16450873D01*
X11715018Y16484024D01*
X11715017Y16484025D01*
X11715015Y16484026D01*
X11587186Y16536973D01*
X11587184Y16536974D01*
X11587183Y16536974D01*
X11495727Y16549015D01*
X11450001Y16555035D01*
X11449999Y16555035D01*
X11381408Y16546005D01*
X11312817Y16536974D01*
X11312816Y16536974D01*
X11312813Y16536973D01*
X11184984Y16484026D01*
X11184982Y16484024D01*
X11125486Y16438371D01*
X11060317Y16413177D01*
X10991872Y16427216D01*
X10974513Y16438371D01*
X10915018Y16484024D01*
X10915017Y16484025D01*
X10915015Y16484026D01*
X10787186Y16536973D01*
X10787184Y16536974D01*
X10787183Y16536974D01*
X10695727Y16549015D01*
X10650001Y16555035D01*
X10649999Y16555035D01*
X10581408Y16546005D01*
X10512817Y16536974D01*
X10512816Y16536974D01*
X10512813Y16536973D01*
X10384985Y16484026D01*
X10275209Y16399791D01*
X10190974Y16290015D01*
X10138027Y16162187D01*
X10138026Y16162182D01*
X10119965Y16025001D01*
X10119965Y16025000D01*
X5900000Y16025000D01*
X5900000Y16875500D01*
X5919685Y16942539D01*
X5972489Y16988294D01*
X6024000Y16999500D01*
X17375500Y16999500D01*
X17442539Y16979815D01*
G37*
%TD.AperFunction*%
%TD*%
M02*
