%TF.GenerationSoftware,KiCad,Pcbnew,7.0.10*%
%TF.CreationDate,2024-04-18T15:46:53+08:00*%
%TF.ProjectId,esp32c3-vertical,65737033-3263-4332-9d76-657274696361,rev?*%
%TF.SameCoordinates,Original*%
%TF.FileFunction,Copper,L4,Bot*%
%TF.FilePolarity,Positive*%
%FSLAX46Y46*%
G04 Gerber Fmt 4.6, Leading zero omitted, Abs format (unit mm)*
G04 Created by KiCad (PCBNEW 7.0.10) date 2024-04-18 15:46:53*
%MOMM*%
%LPD*%
G01*
G04 APERTURE LIST*
G04 Aperture macros list*
%AMRoundRect*
0 Rectangle with rounded corners*
0 $1 Rounding radius*
0 $2 $3 $4 $5 $6 $7 $8 $9 X,Y pos of 4 corners*
0 Add a 4 corners polygon primitive as box body*
4,1,4,$2,$3,$4,$5,$6,$7,$8,$9,$2,$3,0*
0 Add four circle primitives for the rounded corners*
1,1,$1+$1,$2,$3*
1,1,$1+$1,$4,$5*
1,1,$1+$1,$6,$7*
1,1,$1+$1,$8,$9*
0 Add four rect primitives between the rounded corners*
20,1,$1+$1,$2,$3,$4,$5,0*
20,1,$1+$1,$4,$5,$6,$7,0*
20,1,$1+$1,$6,$7,$8,$9,0*
20,1,$1+$1,$8,$9,$2,$3,0*%
G04 Aperture macros list end*
%TA.AperFunction,SMDPad,CuDef*%
%ADD10R,1.350000X1.350000*%
%TD*%
%TA.AperFunction,SMDPad,CuDef*%
%ADD11O,1.350000X1.350000*%
%TD*%
%TA.AperFunction,SMDPad,CuDef*%
%ADD12RoundRect,0.225000X0.250000X-0.225000X0.250000X0.225000X-0.250000X0.225000X-0.250000X-0.225000X0*%
%TD*%
%TA.AperFunction,SMDPad,CuDef*%
%ADD13RoundRect,0.150000X0.150000X-0.512500X0.150000X0.512500X-0.150000X0.512500X-0.150000X-0.512500X0*%
%TD*%
%TA.AperFunction,SMDPad,CuDef*%
%ADD14RoundRect,0.200000X-0.275000X0.200000X-0.275000X-0.200000X0.275000X-0.200000X0.275000X0.200000X0*%
%TD*%
%TA.AperFunction,SMDPad,CuDef*%
%ADD15RoundRect,0.200000X0.275000X-0.200000X0.275000X0.200000X-0.275000X0.200000X-0.275000X-0.200000X0*%
%TD*%
%TA.AperFunction,ViaPad*%
%ADD16C,0.450000*%
%TD*%
%TA.AperFunction,ViaPad*%
%ADD17C,0.800000*%
%TD*%
%TA.AperFunction,Conductor*%
%ADD18C,0.250000*%
%TD*%
G04 APERTURE END LIST*
D10*
%TO.P,U1,1,+5V*%
%TO.N,+5V*%
X16600000Y14400000D03*
D11*
%TO.P,U1,2,GND*%
%TO.N,GND*%
X14600000Y14400000D03*
%TO.P,U1,3,EN*%
%TO.N,EN*%
X12600000Y14400000D03*
%TO.P,U1,4,IO0*%
%TO.N,OP*%
X10600000Y14400000D03*
%TO.P,U1,5,TX*%
%TO.N,U0RX*%
X8600000Y14400000D03*
%TO.P,U1,6,RX*%
%TO.N,U0TX*%
X6600000Y14400000D03*
%TD*%
D12*
%TO.P,C3,1*%
%TO.N,+5V*%
X14150000Y8050000D03*
%TO.P,C3,2*%
%TO.N,GND*%
X14150000Y9600000D03*
%TD*%
%TO.P,C2,1*%
%TO.N,+3.3V*%
X16150000Y8050000D03*
%TO.P,C2,2*%
%TO.N,GND*%
X16150000Y9600000D03*
%TD*%
D13*
%TO.P,U3,1,IN*%
%TO.N,+5V*%
X16150000Y4025000D03*
%TO.P,U3,2,GND*%
%TO.N,GND*%
X15200000Y4025000D03*
%TO.P,U3,3,EN*%
%TO.N,+5V*%
X14250000Y4025000D03*
%TO.P,U3,4,NC*%
%TO.N,unconnected-(U3-NC-Pad4)*%
X14250000Y6300000D03*
%TO.P,U3,5,OUT*%
%TO.N,+3.3V*%
X16150000Y6300000D03*
%TD*%
D12*
%TO.P,C1,1*%
%TO.N,EN*%
X12300000Y6450000D03*
%TO.P,C1,2*%
%TO.N,GND*%
X12300000Y8000000D03*
%TD*%
D14*
%TO.P,R1,1*%
%TO.N,+3.3V*%
X10750000Y8050000D03*
%TO.P,R1,2*%
%TO.N,EN*%
X10750000Y6400000D03*
%TD*%
D15*
%TO.P,R3,1*%
%TO.N,+3.3V*%
X15100000Y11075000D03*
%TO.P,R3,2*%
%TO.N,Net-(U2-GPIO8)*%
X15100000Y12725000D03*
%TD*%
D14*
%TO.P,R2,1*%
%TO.N,+3.3V*%
X9200000Y8050000D03*
%TO.P,R2,2*%
%TO.N,Net-(U2-GPIO2{slash}ADC1_CH2)*%
X9200000Y6400000D03*
%TD*%
D16*
%TO.N,GND*%
X13650000Y12100000D03*
%TO.N,+3.3V*%
X15100000Y11100000D03*
%TO.N,GND*%
X12300000Y8000000D03*
X9500000Y12100000D03*
%TO.N,U0RX*%
X11450000Y16025000D03*
%TO.N,U0TX*%
X10650000Y16025000D03*
%TO.N,OP*%
X10600000Y14400000D03*
%TO.N,CH2*%
X3785714Y1300000D03*
%TO.N,CH1*%
X1800000Y1300000D03*
%TO.N,CH2*%
X7583353Y5605549D03*
%TO.N,CH1*%
X8200000Y5400000D03*
%TO.N,GND*%
X15400000Y4200000D03*
%TO.N,OUT1*%
X15200000Y5300000D03*
X11728570Y2600000D03*
%TO.N,OUT2*%
X9900000Y2600000D03*
X15400000Y6125000D03*
%TO.N,+3.3V*%
X8200000Y8000000D03*
X9100000Y5200000D03*
%TO.N,GND*%
X6500000Y4200000D03*
X16400000Y16100000D03*
%TO.N,Net-(U2-GPIO8)*%
X15100000Y12725000D03*
%TO.N,Net-(U2-GPIO2{slash}ADC1_CH2)*%
X10550000Y5250000D03*
%TO.N,EN*%
X12900000Y5200000D03*
D17*
%TO.N,GND*%
X13750000Y1300000D03*
D16*
%TO.N,+5V*%
X15950000Y2800000D03*
%TD*%
D18*
%TO.N,GND*%
X15500000Y12000000D02*
X13750000Y12000000D01*
X13750000Y12000000D02*
X13650000Y12100000D01*
X16150000Y11350000D02*
X15500000Y12000000D01*
X16150000Y9600000D02*
X16150000Y11350000D01*
%TO.N,EN*%
X13100000Y8800000D02*
X13100000Y5400000D01*
X13100000Y5400000D02*
X12900000Y5200000D01*
X12400000Y14200000D02*
X12400000Y9500000D01*
X12400000Y9500000D02*
X13100000Y8800000D01*
X12600000Y14400000D02*
X12400000Y14200000D01*
%TO.N,GND*%
X14150000Y9600000D02*
X14150000Y11600000D01*
X14150000Y11600000D02*
X13650000Y12100000D01*
%TO.N,+3.3V*%
X15100000Y11100000D02*
X15100000Y9100000D01*
%TO.N,+5V*%
X16950000Y14050000D02*
X16950000Y4825000D01*
X16950000Y4825000D02*
X16150000Y4025000D01*
X16600000Y14400000D02*
X16950000Y14050000D01*
%TO.N,GND*%
X16300000Y16100000D02*
X16400000Y16100000D01*
X14600000Y14400000D02*
X16300000Y16100000D01*
%TO.N,U0RX*%
X11450000Y15650000D02*
X11450000Y16025000D01*
X11200000Y15400000D02*
X11450000Y15650000D01*
X9600000Y15400000D02*
X11200000Y15400000D01*
X8600000Y14400000D02*
X9600000Y15400000D01*
%TO.N,U0TX*%
X8225000Y16025000D02*
X10650000Y16025000D01*
X6600000Y14400000D02*
X8225000Y16025000D01*
%TO.N,CH2*%
X4377818Y1300000D02*
X3785714Y1300000D01*
X7583353Y4505535D02*
X4377818Y1300000D01*
X7583353Y5605549D02*
X7583353Y4505535D01*
%TO.N,+5V*%
X14812501Y2800000D02*
X15950000Y2800000D01*
X14250000Y3362501D02*
X14812501Y2800000D01*
X14250000Y4025000D02*
X14250000Y3362501D01*
%TO.N,+3.3V*%
X8250000Y8050000D02*
X8200000Y8000000D01*
X9200000Y8050000D02*
X8250000Y8050000D01*
X15100000Y9100000D02*
X16150000Y8050000D01*
X15100000Y11075000D02*
X15100000Y11100000D01*
X9200000Y8050000D02*
X10750000Y8050000D01*
%TO.N,Net-(U2-GPIO2{slash}ADC1_CH2)*%
X9400000Y6400000D02*
X10550000Y5250000D01*
X9200000Y6400000D02*
X9400000Y6400000D01*
%TO.N,EN*%
X12300000Y5800000D02*
X12900000Y5200000D01*
X12300000Y6450000D02*
X12300000Y5800000D01*
X12250000Y6400000D02*
X12300000Y6450000D01*
X10750000Y6400000D02*
X12250000Y6400000D01*
%TO.N,+5V*%
X16150000Y3000000D02*
X16150000Y4025000D01*
X15950000Y2800000D02*
X16150000Y3000000D01*
X13625000Y7525000D02*
X13625000Y4650000D01*
X14150000Y8050000D02*
X13625000Y7525000D01*
X13625000Y4650000D02*
X14250000Y4025000D01*
%TO.N,+3.3V*%
X16150000Y6300000D02*
X16150000Y8050000D01*
%TD*%
%TA.AperFunction,Conductor*%
%TO.N,GND*%
G36*
X13746420Y12302217D02*
G01*
X13747472Y12301713D01*
X14067462Y12128320D01*
X14073103Y12121365D01*
X14073588Y12118033D01*
X14073588Y11886700D01*
X14070161Y11878427D01*
X14061888Y11875000D01*
X13661648Y11875000D01*
X13653375Y11878427D01*
X13649948Y11886648D01*
X13649948Y11886700D01*
X13649010Y12097624D01*
X13649918Y12102192D01*
X13731107Y12295949D01*
X13737465Y12302254D01*
X13746420Y12302217D01*
G37*
%TD.AperFunction*%
%TD*%
%TA.AperFunction,Conductor*%
%TO.N,GND*%
G36*
X16276434Y10496573D02*
G01*
X16278356Y10494041D01*
X16594863Y9932009D01*
X16595936Y9923119D01*
X16591503Y9916772D01*
X16156835Y9603920D01*
X16148118Y9601868D01*
X16143165Y9603920D01*
X15708496Y9916772D01*
X15703783Y9924386D01*
X15705135Y9932007D01*
X16021644Y10494042D01*
X16028690Y10499568D01*
X16031839Y10500000D01*
X16268161Y10500000D01*
X16276434Y10496573D01*
G37*
%TD.AperFunction*%
%TD*%
%TA.AperFunction,Conductor*%
%TO.N,EN*%
G36*
X13218165Y5563731D02*
G01*
X13221592Y5555458D01*
X13221220Y5552531D01*
X13111227Y5126877D01*
X13105839Y5119724D01*
X13096972Y5118476D01*
X13095466Y5118976D01*
X12902193Y5198102D01*
X12898328Y5200682D01*
X12749619Y5350326D01*
X12746219Y5358609D01*
X12749672Y5366871D01*
X12750137Y5367309D01*
X12971675Y5564204D01*
X12979447Y5567158D01*
X13209892Y5567158D01*
X13218165Y5563731D01*
G37*
%TD.AperFunction*%
%TD*%
%TA.AperFunction,Conductor*%
%TO.N,EN*%
G36*
X13210511Y14147140D02*
G01*
X13216835Y14140800D01*
X13216822Y14131845D01*
X13215765Y14129864D01*
X12528471Y13095009D01*
X12521040Y13090013D01*
X12518725Y13089782D01*
X12283841Y13089782D01*
X12275568Y13093209D01*
X12272586Y13098287D01*
X11979221Y14131685D01*
X11980258Y14140579D01*
X11985982Y14145682D01*
X12595510Y14399134D01*
X12604458Y14399146D01*
X13210511Y14147140D01*
G37*
%TD.AperFunction*%
%TD*%
%TA.AperFunction,Conductor*%
%TO.N,GND*%
G36*
X14276434Y10496573D02*
G01*
X14278356Y10494041D01*
X14594863Y9932009D01*
X14595936Y9923119D01*
X14591503Y9916772D01*
X14156835Y9603920D01*
X14148118Y9601868D01*
X14143165Y9603920D01*
X13708496Y9916772D01*
X13703783Y9924386D01*
X13705135Y9932007D01*
X14021644Y10494042D01*
X14028690Y10499568D01*
X14031839Y10500000D01*
X14268161Y10500000D01*
X14276434Y10496573D01*
G37*
%TD.AperFunction*%
%TD*%
%TA.AperFunction,Conductor*%
%TO.N,GND*%
G36*
X13857726Y12182341D02*
G01*
X13863108Y12177780D01*
X14051615Y11878093D01*
X14053119Y11869265D01*
X14049984Y11863590D01*
X13886410Y11700016D01*
X13878137Y11696589D01*
X13871907Y11698385D01*
X13572220Y11886892D01*
X13567042Y11894198D01*
X13567621Y11901228D01*
X13647435Y12096171D01*
X13653741Y12102528D01*
X13653757Y12102535D01*
X13848772Y12182378D01*
X13857726Y12182341D01*
G37*
%TD.AperFunction*%
%TD*%
%TA.AperFunction,Conductor*%
%TO.N,+3.3V*%
G36*
X15298803Y11017697D02*
G01*
X15305109Y11011339D01*
X15305689Y11004308D01*
X15227073Y10659102D01*
X15221895Y10651796D01*
X15215665Y10650000D01*
X14984335Y10650000D01*
X14976062Y10653427D01*
X14972927Y10659102D01*
X14894310Y11004310D01*
X14895814Y11013136D01*
X14901193Y11017696D01*
X15095480Y11099107D01*
X15104431Y11099143D01*
X15298803Y11017697D01*
G37*
%TD.AperFunction*%
%TD*%
%TA.AperFunction,Conductor*%
%TO.N,+3.3V*%
G36*
X15107747Y11069156D02*
G01*
X15492628Y10729120D01*
X15496559Y10721074D01*
X15494850Y10714227D01*
X15228425Y10280575D01*
X15221174Y10275320D01*
X15218456Y10275000D01*
X14981544Y10275000D01*
X14973271Y10278427D01*
X14971575Y10280575D01*
X14705149Y10714227D01*
X14703738Y10723070D01*
X14707369Y10729119D01*
X15092253Y11069157D01*
X15100722Y11072066D01*
X15107747Y11069156D01*
G37*
%TD.AperFunction*%
%TD*%
%TA.AperFunction,Conductor*%
%TO.N,+5V*%
G36*
X16608275Y14392576D02*
G01*
X16609402Y14391584D01*
X17270085Y13729922D01*
X17273506Y13721647D01*
X17273024Y13718332D01*
X17077482Y13058376D01*
X17071846Y13051417D01*
X17066264Y13050000D01*
X16829502Y13050000D01*
X16821659Y13053018D01*
X16815728Y13058376D01*
X16085882Y13717740D01*
X16082041Y13725828D01*
X16084466Y13733571D01*
X16591867Y14390471D01*
X16599633Y14394922D01*
X16608275Y14392576D01*
G37*
%TD.AperFunction*%
%TD*%
%TA.AperFunction,Conductor*%
%TO.N,+5V*%
G36*
X16570331Y4626233D02*
G01*
X16576209Y4623054D01*
X16744314Y4454949D01*
X16747741Y4446676D01*
X16746300Y4441050D01*
X16455029Y3909908D01*
X16448046Y3904302D01*
X16440323Y3904712D01*
X16427677Y3909908D01*
X16159472Y4020111D01*
X16153123Y4026424D01*
X16152847Y4034710D01*
X16291497Y4441050D01*
X16365700Y4658518D01*
X16371614Y4665239D01*
X16379165Y4666190D01*
X16570331Y4626233D01*
G37*
%TD.AperFunction*%
%TD*%
%TA.AperFunction,Conductor*%
%TO.N,GND*%
G36*
X16249212Y16250830D02*
G01*
X16249736Y16250343D01*
X16250363Y16249721D01*
X16399016Y16102383D01*
X16401608Y16098506D01*
X16481595Y15903140D01*
X16481558Y15894185D01*
X16475200Y15887879D01*
X16475017Y15887806D01*
X16137255Y15756135D01*
X16128302Y15756323D01*
X16124732Y15758763D01*
X15961094Y15922401D01*
X15957667Y15930674D01*
X15960556Y15938371D01*
X16232704Y16249722D01*
X16240728Y16253695D01*
X16249212Y16250830D01*
G37*
%TD.AperFunction*%
%TD*%
%TA.AperFunction,Conductor*%
%TO.N,GND*%
G36*
X15468109Y15440035D02*
G01*
X15471521Y15437666D01*
X15637665Y15271522D01*
X15641092Y15263249D01*
X15640355Y15259161D01*
X15227850Y14153036D01*
X15221748Y14146482D01*
X15212799Y14146161D01*
X15212424Y14146308D01*
X15212002Y14146482D01*
X15051704Y14212623D01*
X14603790Y14397438D01*
X14597450Y14403762D01*
X14597437Y14403791D01*
X14346307Y15012427D01*
X14346320Y15021380D01*
X14352660Y15027704D01*
X14352994Y15027836D01*
X15459163Y15440356D01*
X15468109Y15440035D01*
G37*
%TD.AperFunction*%
%TD*%
%TA.AperFunction,Conductor*%
%TO.N,U0RX*%
G36*
X11647249Y15943348D02*
G01*
X11653554Y15936991D01*
X11653586Y15928204D01*
X11491951Y15525035D01*
X11485691Y15518631D01*
X11476737Y15518529D01*
X11472818Y15521116D01*
X11310820Y15683114D01*
X11307775Y15688421D01*
X11244709Y15929043D01*
X11245927Y15937914D01*
X11251528Y15942809D01*
X11446197Y16023831D01*
X11455150Y16023845D01*
X11647249Y15943348D01*
G37*
%TD.AperFunction*%
%TD*%
%TA.AperFunction,Conductor*%
%TO.N,U0RX*%
G36*
X9468109Y15440035D02*
G01*
X9471521Y15437666D01*
X9637665Y15271522D01*
X9641092Y15263249D01*
X9640355Y15259161D01*
X9227850Y14153036D01*
X9221748Y14146482D01*
X9212799Y14146161D01*
X9212424Y14146308D01*
X9212002Y14146482D01*
X9051704Y14212623D01*
X8603790Y14397438D01*
X8597450Y14403762D01*
X8597437Y14403791D01*
X8346307Y15012427D01*
X8346320Y15021380D01*
X8352660Y15027704D01*
X8352994Y15027836D01*
X9459163Y15440356D01*
X9468109Y15440035D01*
G37*
%TD.AperFunction*%
%TD*%
%TA.AperFunction,Conductor*%
%TO.N,U0TX*%
G36*
X10563135Y16229186D02*
G01*
X10567696Y16223804D01*
X10649105Y16029522D01*
X10649142Y16020567D01*
X10649105Y16020478D01*
X10567696Y15826197D01*
X10561338Y15819891D01*
X10554307Y15819311D01*
X10209102Y15897928D01*
X10201796Y15903106D01*
X10200000Y15909336D01*
X10200000Y16140665D01*
X10203427Y16148938D01*
X10209101Y16152073D01*
X10554308Y16230690D01*
X10563135Y16229186D01*
G37*
%TD.AperFunction*%
%TD*%
%TA.AperFunction,Conductor*%
%TO.N,U0TX*%
G36*
X7468109Y15440035D02*
G01*
X7471521Y15437666D01*
X7637665Y15271522D01*
X7641092Y15263249D01*
X7640355Y15259161D01*
X7227850Y14153036D01*
X7221748Y14146482D01*
X7212799Y14146161D01*
X7212424Y14146308D01*
X7212002Y14146482D01*
X7051704Y14212623D01*
X6603790Y14397438D01*
X6597450Y14403762D01*
X6597437Y14403791D01*
X6346307Y15012427D01*
X6346320Y15021380D01*
X6352660Y15027704D01*
X6352994Y15027836D01*
X7459163Y15440356D01*
X7468109Y15440035D01*
G37*
%TD.AperFunction*%
%TD*%
%TA.AperFunction,Conductor*%
%TO.N,CH2*%
G36*
X4226612Y1427073D02*
G01*
X4233918Y1421895D01*
X4235714Y1415665D01*
X4235714Y1184336D01*
X4232287Y1176063D01*
X4226612Y1172928D01*
X3881406Y1094311D01*
X3872578Y1095815D01*
X3868017Y1101197D01*
X3837092Y1175000D01*
X3786607Y1295481D01*
X3786571Y1304432D01*
X3868018Y1498806D01*
X3874375Y1505110D01*
X3881404Y1505690D01*
X4226612Y1427073D01*
G37*
%TD.AperFunction*%
%TD*%
%TA.AperFunction,Conductor*%
%TO.N,CH2*%
G36*
X7779836Y5524218D02*
G01*
X7786142Y5517860D01*
X7786870Y5511597D01*
X7781068Y5474965D01*
X7780920Y5474197D01*
X7710426Y5164651D01*
X7705248Y5157345D01*
X7699018Y5155549D01*
X7467688Y5155549D01*
X7459415Y5158976D01*
X7456280Y5164651D01*
X7377663Y5509859D01*
X7379167Y5518685D01*
X7384546Y5523245D01*
X7578833Y5604656D01*
X7587785Y5604692D01*
X7779836Y5524218D01*
G37*
%TD.AperFunction*%
%TD*%
%TA.AperFunction,Conductor*%
%TO.N,+5V*%
G36*
X15863135Y3004186D02*
G01*
X15867696Y2998804D01*
X15949105Y2804522D01*
X15949142Y2795567D01*
X15949105Y2795478D01*
X15867696Y2601197D01*
X15861338Y2594891D01*
X15854307Y2594311D01*
X15509102Y2672928D01*
X15501796Y2678106D01*
X15500000Y2684336D01*
X15500000Y2915665D01*
X15503427Y2923938D01*
X15509101Y2927073D01*
X15854308Y3005690D01*
X15863135Y3004186D01*
G37*
%TD.AperFunction*%
%TD*%
%TA.AperFunction,Conductor*%
%TO.N,+5V*%
G36*
X14545628Y4054823D02*
G01*
X14549938Y4046974D01*
X14550008Y4045703D01*
X14550517Y3243607D01*
X14547095Y3235332D01*
X14382440Y3070677D01*
X14374167Y3067250D01*
X14365894Y3070677D01*
X14365492Y3071100D01*
X14216883Y3235332D01*
X14105869Y3358016D01*
X14102860Y3366449D01*
X14103122Y3368393D01*
X14247475Y4017533D01*
X14252616Y4024864D01*
X14257617Y4026622D01*
X14537030Y4057326D01*
X14545628Y4054823D01*
G37*
%TD.AperFunction*%
%TD*%
%TA.AperFunction,Conductor*%
%TO.N,+3.3V*%
G36*
X8212946Y8223529D02*
G01*
X8629676Y8176180D01*
X8637508Y8171841D01*
X8640054Y8164555D01*
X8640054Y7933106D01*
X8636627Y7924833D01*
X8632466Y7922152D01*
X8296652Y7796087D01*
X8287702Y7796388D01*
X8281749Y7802519D01*
X8230496Y7924833D01*
X8199918Y7997808D01*
X8199010Y8002378D01*
X8199942Y8211956D01*
X8203406Y8220213D01*
X8211694Y8223603D01*
X8212946Y8223529D01*
G37*
%TD.AperFunction*%
%TD*%
%TA.AperFunction,Conductor*%
%TO.N,+3.3V*%
G36*
X8854407Y8428288D02*
G01*
X9193758Y8057904D01*
X9196820Y8049489D01*
X9193758Y8042096D01*
X8854407Y7671713D01*
X8846291Y7667928D01*
X8840579Y7669137D01*
X8331499Y7921775D01*
X8325612Y7928522D01*
X8325000Y7932255D01*
X8325000Y8167746D01*
X8328427Y8176019D01*
X8331495Y8178224D01*
X8840580Y8430865D01*
X8849513Y8431472D01*
X8854407Y8428288D01*
G37*
%TD.AperFunction*%
%TD*%
%TA.AperFunction,Conductor*%
%TO.N,+3.3V*%
G36*
X15533374Y8847541D02*
G01*
X16325845Y8504566D01*
X16332077Y8498135D01*
X16332016Y8489371D01*
X16152735Y8054217D01*
X16146415Y8047873D01*
X16145661Y8047589D01*
X15685360Y7892104D01*
X15676426Y7892703D01*
X15670810Y7898706D01*
X15352296Y8666699D01*
X15352293Y8675653D01*
X15354828Y8679450D01*
X15520455Y8845077D01*
X15528727Y8848503D01*
X15533374Y8847541D01*
G37*
%TD.AperFunction*%
%TD*%
%TA.AperFunction,Conductor*%
%TO.N,+3.3V*%
G36*
X10404407Y8428288D02*
G01*
X10743758Y8057904D01*
X10746820Y8049489D01*
X10743758Y8042096D01*
X10404407Y7671713D01*
X10396291Y7667928D01*
X10390579Y7669137D01*
X9881499Y7921775D01*
X9875612Y7928522D01*
X9875000Y7932255D01*
X9875000Y8167746D01*
X9878427Y8176019D01*
X9881495Y8178224D01*
X10390580Y8430865D01*
X10399513Y8431472D01*
X10404407Y8428288D01*
G37*
%TD.AperFunction*%
%TD*%
%TA.AperFunction,Conductor*%
%TO.N,+3.3V*%
G36*
X9559419Y8430865D02*
G01*
X10068502Y8178225D01*
X10074388Y8171479D01*
X10075000Y8167746D01*
X10075000Y7932255D01*
X10071573Y7923982D01*
X10068501Y7921775D01*
X9559420Y7669137D01*
X9550486Y7668529D01*
X9545592Y7671713D01*
X9314459Y7923982D01*
X9206240Y8042098D01*
X9203179Y8050511D01*
X9206240Y8057903D01*
X9545593Y8428289D01*
X9553708Y8432073D01*
X9559419Y8430865D01*
G37*
%TD.AperFunction*%
%TD*%
%TA.AperFunction,Conductor*%
%TO.N,Net-(U2-GPIO2{slash}ADC1_CH2)*%
G36*
X10328092Y5651616D02*
G01*
X10627779Y5463109D01*
X10632957Y5455803D01*
X10632377Y5448772D01*
X10552564Y5253831D01*
X10546258Y5247473D01*
X10546169Y5247436D01*
X10351228Y5167623D01*
X10342273Y5167660D01*
X10336891Y5172221D01*
X10148384Y5471908D01*
X10146880Y5480736D01*
X10150013Y5486409D01*
X10313590Y5649986D01*
X10321862Y5653412D01*
X10328092Y5651616D01*
G37*
%TD.AperFunction*%
%TD*%
%TA.AperFunction,Conductor*%
%TO.N,Net-(U2-GPIO2{slash}ADC1_CH2)*%
G36*
X9675097Y6544661D02*
G01*
X9679708Y6540276D01*
X9999991Y6000000D01*
X10029155Y5950805D01*
X10030426Y5941941D01*
X10027364Y5936566D01*
X9861936Y5771138D01*
X9853663Y5767711D01*
X9850333Y5768195D01*
X9081007Y5996588D01*
X9074051Y6002227D01*
X9073121Y6011134D01*
X9073182Y6011332D01*
X9197423Y6394937D01*
X9203233Y6401750D01*
X9205081Y6402502D01*
X9666182Y6545484D01*
X9675097Y6544661D01*
G37*
%TD.AperFunction*%
%TD*%
%TA.AperFunction,Conductor*%
%TO.N,EN*%
G36*
X12678092Y5601616D02*
G01*
X12977779Y5413109D01*
X12982957Y5405803D01*
X12982377Y5398772D01*
X12902564Y5203831D01*
X12896258Y5197473D01*
X12896169Y5197436D01*
X12701228Y5117623D01*
X12692273Y5117660D01*
X12686891Y5122221D01*
X12498384Y5421908D01*
X12496880Y5430736D01*
X12500013Y5436409D01*
X12663590Y5599986D01*
X12671862Y5603412D01*
X12678092Y5601616D01*
G37*
%TD.AperFunction*%
%TD*%
%TA.AperFunction,Conductor*%
%TO.N,EN*%
G36*
X12307682Y6445003D02*
G01*
X12749746Y6144422D01*
X12754660Y6136937D01*
X12753832Y6129937D01*
X12566044Y5713563D01*
X12563652Y5710100D01*
X12397058Y5543506D01*
X12388785Y5540079D01*
X12380512Y5543506D01*
X12380133Y5543903D01*
X11933901Y6034082D01*
X11930867Y6042505D01*
X11933906Y6049838D01*
X12292459Y6443210D01*
X12300564Y6447014D01*
X12307682Y6445003D01*
G37*
%TD.AperFunction*%
%TD*%
%TA.AperFunction,Conductor*%
%TO.N,EN*%
G36*
X11969616Y6874219D02*
G01*
X12295381Y6457192D01*
X12297774Y6448562D01*
X12295392Y6442800D01*
X11969485Y6024305D01*
X11961698Y6019883D01*
X11955561Y6020777D01*
X11382007Y6271932D01*
X11375803Y6278389D01*
X11375000Y6282649D01*
X11375000Y6518419D01*
X11378427Y6526692D01*
X11380620Y6528416D01*
X11954322Y6877016D01*
X11963170Y6878382D01*
X11969616Y6874219D01*
G37*
%TD.AperFunction*%
%TD*%
%TA.AperFunction,Conductor*%
%TO.N,EN*%
G36*
X11109419Y6780865D02*
G01*
X11618502Y6528225D01*
X11624388Y6521479D01*
X11625000Y6517746D01*
X11625000Y6282255D01*
X11621573Y6273982D01*
X11618501Y6271775D01*
X11109420Y6019137D01*
X11100486Y6018529D01*
X11095592Y6021713D01*
X10864459Y6273982D01*
X10756240Y6392098D01*
X10753179Y6400511D01*
X10756240Y6407903D01*
X11095593Y6778289D01*
X11103708Y6782073D01*
X11109419Y6780865D01*
G37*
%TD.AperFunction*%
%TD*%
%TA.AperFunction,Conductor*%
%TO.N,+5V*%
G36*
X16155278Y4010507D02*
G01*
X16160442Y4005343D01*
X16436152Y3459904D01*
X16436826Y3450975D01*
X16436510Y3450126D01*
X16278000Y3069700D01*
X16271655Y3063381D01*
X16267200Y3062500D01*
X16032800Y3062500D01*
X16024527Y3065927D01*
X16022000Y3069700D01*
X15863489Y3450126D01*
X15863470Y3459081D01*
X15863838Y3459886D01*
X16139558Y4005344D01*
X16146349Y4011181D01*
X16155278Y4010507D01*
G37*
%TD.AperFunction*%
%TD*%
%TA.AperFunction,Conductor*%
%TO.N,+5V*%
G36*
X16268165Y3163731D02*
G01*
X16271592Y3155458D01*
X16271220Y3152531D01*
X16161227Y2726877D01*
X16155839Y2719724D01*
X16146972Y2718476D01*
X16145466Y2718976D01*
X15952193Y2798102D01*
X15948328Y2800682D01*
X15799619Y2950326D01*
X15796219Y2958609D01*
X15799672Y2966871D01*
X15800137Y2967309D01*
X16021675Y3164204D01*
X16029447Y3167158D01*
X16259892Y3167158D01*
X16268165Y3163731D01*
G37*
%TD.AperFunction*%
%TD*%
%TA.AperFunction,Conductor*%
%TO.N,+5V*%
G36*
X14144626Y8052110D02*
G01*
X14152035Y8047081D01*
X14152582Y8046162D01*
X14385219Y7610349D01*
X14386091Y7601436D01*
X14380407Y7594517D01*
X14380380Y7594503D01*
X13752571Y7261466D01*
X13747088Y7260102D01*
X13514228Y7260102D01*
X13505955Y7263529D01*
X13502528Y7271802D01*
X13502748Y7274062D01*
X13654917Y8047081D01*
X13672719Y8137516D01*
X13677680Y8144970D01*
X13686457Y8146735D01*
X14144626Y8052110D01*
G37*
%TD.AperFunction*%
%TD*%
%TA.AperFunction,Conductor*%
%TO.N,+5V*%
G36*
X14029632Y4664528D02*
G01*
X14034299Y4658515D01*
X14247152Y4034710D01*
X14246581Y4025774D01*
X14240526Y4020110D01*
X13959676Y3904712D01*
X13950721Y3904737D01*
X13944970Y3909908D01*
X13653699Y4441050D01*
X13652726Y4449952D01*
X13655683Y4454947D01*
X13823792Y4623056D01*
X13829666Y4626233D01*
X14020833Y4666190D01*
X14029632Y4664528D01*
G37*
%TD.AperFunction*%
%TD*%
%TA.AperFunction,Conductor*%
%TO.N,+3.3V*%
G36*
X16156833Y8046082D02*
G01*
X16591503Y7733230D01*
X16596216Y7725616D01*
X16594863Y7717993D01*
X16278356Y7155959D01*
X16271310Y7150432D01*
X16268161Y7150000D01*
X16031839Y7150000D01*
X16023566Y7153427D01*
X16021644Y7155959D01*
X15705136Y7717993D01*
X15704063Y7726883D01*
X15708494Y7733228D01*
X16143165Y8046082D01*
X16151882Y8048133D01*
X16156833Y8046082D01*
G37*
%TD.AperFunction*%
%TD*%
%TA.AperFunction,Conductor*%
%TO.N,+3.3V*%
G36*
X16275473Y7259073D02*
G01*
X16278000Y7255300D01*
X16436510Y6874875D01*
X16436529Y6865920D01*
X16436152Y6865097D01*
X16160442Y6319658D01*
X16153651Y6313820D01*
X16144722Y6314494D01*
X16139558Y6319658D01*
X15863847Y6865097D01*
X15863173Y6874026D01*
X15863483Y6874861D01*
X16022000Y7255301D01*
X16028345Y7261619D01*
X16032800Y7262500D01*
X16267200Y7262500D01*
X16275473Y7259073D01*
G37*
%TD.AperFunction*%
%TD*%
M02*
