%TF.GenerationSoftware,KiCad,Pcbnew,7.0.10*%
%TF.CreationDate,2024-04-18T15:46:53+08:00*%
%TF.ProjectId,esp32c3-vertical,65737033-3263-4332-9d76-657274696361,rev?*%
%TF.SameCoordinates,Original*%
%TF.FileFunction,Legend,Top*%
%TF.FilePolarity,Positive*%
%FSLAX46Y46*%
G04 Gerber Fmt 4.6, Leading zero omitted, Abs format (unit mm)*
G04 Created by KiCad (PCBNEW 7.0.10) date 2024-04-18 15:46:53*
%MOMM*%
%LPD*%
G01*
G04 APERTURE LIST*
G04 Aperture macros list*
%AMFreePoly0*
4,1,6,0.725000,-0.725000,-0.725000,-0.725000,-0.725000,0.125000,-0.125000,0.725000,0.725000,0.725000,0.725000,-0.725000,0.725000,-0.725000,$1*%
G04 Aperture macros list end*
%ADD10C,0.120000*%
%ADD11R,1.000000X2.000000*%
%ADD12R,0.400000X0.800000*%
%ADD13R,0.800000X0.400000*%
%ADD14FreePoly0,90.000000*%
%ADD15R,1.450000X1.450000*%
%ADD16R,0.700000X0.700000*%
G04 APERTURE END LIST*
D10*
%TO.C,U2*%
X16450000Y3325000D02*
X17250000Y3325000D01*
X17250000Y3325000D02*
X17250000Y4125000D01*
X450000Y3525000D02*
X450000Y16725000D01*
X5850000Y3525000D02*
X5850000Y16725000D01*
X17050000Y3525000D02*
X450000Y3525000D01*
X250000Y4200000D02*
X250000Y3350000D01*
X250000Y16175000D02*
X250000Y16925000D01*
X450000Y16725000D02*
X17050000Y16725000D01*
X17050000Y16725000D02*
X17050000Y3525000D01*
X250000Y16925000D02*
X850000Y16925000D01*
X16450000Y16925000D02*
X17250000Y16925000D01*
X17250000Y16925000D02*
X17250000Y16125000D01*
%TD*%
%LPC*%
D11*
%TO.C,J8*%
X15700000Y1300000D03*
%TD*%
%TO.C,J7*%
X13700000Y1300000D03*
%TD*%
%TO.C,J6*%
X11728570Y1300000D03*
%TD*%
%TO.C,J5*%
X9800000Y1300000D03*
%TD*%
%TO.C,J4*%
X7800000Y1300000D03*
%TD*%
%TO.C,J3*%
X5700000Y1300000D03*
%TD*%
%TO.C,J2*%
X3785714Y1300000D03*
%TD*%
%TO.C,J1*%
X1800000Y1300000D03*
%TD*%
D12*
%TO.C,U2*%
X7450000Y4225000D03*
X8250000Y4225000D03*
X9050000Y4225000D03*
X9850000Y4225000D03*
X10650000Y4225000D03*
X11450000Y4225000D03*
X12250000Y4225000D03*
X13050000Y4225000D03*
X13850000Y4225000D03*
X14650000Y4225000D03*
X15450000Y4225000D03*
D13*
X16350000Y5325000D03*
X16350000Y6125000D03*
X16350000Y6925000D03*
X16350000Y7725000D03*
X16350000Y8525000D03*
X16350000Y9325000D03*
X16350000Y10125000D03*
X16350000Y10925000D03*
X16350000Y11725000D03*
X16350000Y12525000D03*
X16350000Y13325000D03*
X16350000Y14125000D03*
X16350000Y14925000D03*
D12*
X15450000Y16025000D03*
X14650000Y16025000D03*
X13850000Y16025000D03*
X13050000Y16025000D03*
X12250000Y16025000D03*
X11450000Y16025000D03*
X10650000Y16025000D03*
X9850000Y16025000D03*
X9050000Y16025000D03*
X8250000Y16025000D03*
X7450000Y16025000D03*
D13*
X6550000Y14925000D03*
X6550000Y14125000D03*
X6550000Y13325000D03*
X6550000Y12525000D03*
X6550000Y11725000D03*
X6550000Y10925000D03*
X6550000Y10125000D03*
X6550000Y9325000D03*
X6550000Y8525000D03*
X6550000Y7725000D03*
X6550000Y6925000D03*
X6550000Y6125000D03*
X6550000Y5325000D03*
D14*
X9475000Y8150000D03*
D15*
X11450000Y8150000D03*
X13425000Y8150000D03*
X9475000Y10125000D03*
X11450000Y10125000D03*
X13425000Y10125000D03*
X9475000Y12100000D03*
X11450000Y12100000D03*
X13425000Y12100000D03*
D16*
X6500000Y16075000D03*
X16400000Y16075000D03*
X16400000Y4175000D03*
X6500000Y4175000D03*
%TD*%
%LPD*%
M02*
